<svg width="1357" height="790" viewBox="0 0 1357 790" fill="none" xmlns="http://www.w3.org/2000/svg">
<path d="M658.85 149.48C659.117 149.48 659.453 148.266 659.86 145.84C662.23 131.58 670.71 117.6 680.96 107.73C683.37 105.41 686.72 102.92 689.63 100.57C700.06 92.1498 705.55 76.6498 698.69 64.6498C692.81 54.3598 676.11 52.5698 670.62 64.7198C669.827 66.4731 669.627 68.1865 670.02 69.8598C671.08 74.4098 676.05 77.7498 680.03 73.9498C683.25 70.8898 681.31 67.9898 679.14 65.1098C678.393 64.1165 678.61 63.8198 679.79 64.2198C683.997 65.6331 686.557 68.3431 687.47 72.3498C688.6 77.2698 686.15 82.3498 681.47 83.9898C672.34 87.1798 663.35 82.6198 662.79 72.3398C661.99 57.4898 674.6 46.3798 689.26 47.9998C700.76 49.2798 708.54 58.9098 709.12 70.1898C709.527 77.9898 708.007 85.4298 704.56 92.5098C704.518 92.5946 704.502 92.69 704.513 92.7841C704.525 92.8781 704.565 92.9665 704.627 93.0381C704.689 93.1098 704.771 93.1615 704.862 93.1867C704.953 93.2119 705.05 93.2095 705.14 93.1798C721.34 87.9265 736.93 89.1531 751.91 96.8598C769.92 106.13 779.62 130.06 768.16 148.07C761.19 159.02 741.05 166.1 729.8 158.45C722.947 153.783 720.247 147.003 721.7 138.11C722.373 133.99 724.53 130.763 728.17 128.43C734.75 124.21 743.67 126.56 745.8 134.31C747.35 139.95 742.85 143.79 737.76 144.64C737.704 144.651 737.646 144.646 737.593 144.625C737.54 144.604 737.493 144.568 737.46 144.522C737.426 144.476 737.406 144.421 737.403 144.364C737.399 144.307 737.412 144.25 737.44 144.2C738.22 142.74 739.79 140.85 739.38 138.6C738.64 134.57 733.46 135.02 731.15 137.23C727.163 141.05 726.79 145.12 730.03 149.44C735.14 156.25 745.31 155.59 752.24 151.72C761.5 146.53 763.8 135.75 760.98 126.03C757.633 114.503 750.147 106.93 738.52 103.31C723.53 98.6498 707.18 101.23 694.05 109.3C667.26 125.75 659.24 156.27 668.4 185.55C676.74 212.2 701.01 225.89 728.04 224.25C728.173 224.243 728.24 224.17 728.24 224.03V223.75C728.24 223.73 728.23 223.72 728.21 223.72C717.9 222.97 706.92 217.99 703.03 207.74C698.77 196.52 702.8 183.43 714.23 178.45C722.93 174.65 734.46 177.06 736.7 187.6C737.84 192.99 738.45 198.71 732.72 201.38C725 204.98 717.81 198.96 719.19 190.87C719.357 189.89 719.66 189.846 720.1 190.74C721.89 194.29 724.76 197.5 728.92 194.43C730.43 193.31 731.02 191.64 730.69 189.72C729.64 183.69 724.32 182.45 719.16 184.3C711.1 187.193 708.307 193.436 710.78 203.03C711.54 205.99 713.027 208.67 715.24 211.07C724.82 221.45 742.61 217.9 753.81 211.59C763.68 206.03 769.9 197.79 770.46 186.75C770.627 183.536 769.843 180.756 768.11 178.41C764.97 174.16 759.41 170.52 754.08 170.81C747.01 171.19 739.06 177.77 745.2 185.08C748.28 188.74 754.09 185.44 753.19 180.84C752.97 179.7 752.697 178.8 752.37 178.14C751.95 177.28 752.157 177.083 752.99 177.55C759.35 181.11 761.09 190.13 753.06 193.49C745.81 196.53 741.59 192.33 738.2 186.33C736.147 182.676 735.887 178.723 737.42 174.47C740.08 167.13 748.17 162.79 755.93 163.04C765.1 163.33 772.78 168.95 776.26 177.34C780.41 187.34 776.67 197.35 770.59 205.58C770.579 205.593 770.572 205.608 770.57 205.625C770.569 205.642 770.572 205.659 770.581 205.675C770.589 205.69 770.602 205.704 770.618 205.714C770.633 205.723 770.652 205.729 770.67 205.73H771.07C771.203 205.73 771.317 205.683 771.41 205.59C774.477 202.49 776.54 200.326 777.6 199.1C792.12 182.36 806 157.39 830.48 152.62C843.78 150.03 859.01 152.55 869.35 161.46C875.917 167.12 879.92 174.76 881.36 184.38C883.22 196.85 880.28 218.95 898.22 223.8C906.65 226.08 917.6 223.25 919.99 213.76C921.03 209.68 920.57 203.3 916.8 200.72C908.05 194.74 900.52 209.16 912.82 209.94C914.267 210.026 914.343 210.396 913.05 211.05C907.28 213.96 900.63 211.14 900.72 204.08C900.81 196.23 906.87 190.38 914.78 190.71C922.28 191.01 927.6 195.95 929.56 203.2C932.29 213.34 924.84 224.48 915.99 228.37C914.183 229.163 914.267 229.56 916.24 229.56H1045.24C1045.44 229.56 1045.64 229.63 1045.8 229.758C1045.95 229.885 1046.06 230.063 1046.1 230.26C1046.29 231.14 1046.29 232.003 1046.11 232.85C1046.04 233.21 1045.82 233.393 1045.45 233.4C1045.25 233.4 916.383 233.4 658.85 233.4C401.323 233.393 272.457 233.39 272.25 233.39C271.883 233.383 271.663 233.2 271.59 232.84C271.41 231.993 271.413 231.13 271.6 230.25C271.639 230.053 271.746 229.875 271.903 229.748C272.06 229.62 272.257 229.55 272.46 229.55H401.46C403.433 229.55 403.517 229.153 401.71 228.36C392.86 224.47 385.41 213.33 388.14 203.19C390.1 195.94 395.42 191 402.92 190.7C410.83 190.37 416.89 196.22 416.98 204.07C417.07 211.13 410.42 213.95 404.65 211.04C403.357 210.386 403.433 210.016 404.88 209.93C417.18 209.15 409.65 194.73 400.9 200.71C397.13 203.29 396.67 209.67 397.71 213.75C400.1 223.24 411.05 226.07 419.48 223.79C437.42 218.94 434.48 196.84 436.34 184.37C437.78 174.75 441.783 167.11 448.35 161.45C458.69 152.54 473.92 150.03 487.22 152.62C511.7 157.39 525.58 182.36 540.1 199.1C541.16 200.326 543.223 202.49 546.29 205.59C546.383 205.683 546.497 205.73 546.63 205.73H547.03C547.049 205.729 547.067 205.723 547.083 205.714C547.098 205.704 547.111 205.69 547.12 205.675C547.128 205.659 547.131 205.642 547.13 205.625C547.128 205.608 547.121 205.593 547.11 205.58C541.03 197.35 537.29 187.34 541.44 177.34C544.92 168.95 552.6 163.33 561.77 163.04C569.53 162.79 577.62 167.13 580.28 174.47C581.813 178.723 581.553 182.676 579.5 186.33C576.11 192.33 571.89 196.53 564.64 193.49C556.61 190.13 558.35 181.11 564.71 177.55C565.543 177.083 565.75 177.28 565.33 178.14C565.003 178.8 564.73 179.7 564.51 180.84C563.61 185.44 569.42 188.74 572.5 185.08C578.64 177.77 570.69 171.19 563.62 170.81C558.29 170.52 552.73 174.16 549.59 178.41C547.857 180.756 547.073 183.536 547.24 186.75C547.8 197.79 554.02 206.03 563.89 211.59C575.09 217.9 592.88 221.45 602.46 211.07C604.673 208.67 606.16 205.99 606.92 203.03C609.393 193.436 606.6 187.193 598.54 184.3C593.38 182.45 588.06 183.69 587.01 189.72C586.68 191.64 587.27 193.31 588.78 194.43C592.94 197.5 595.81 194.29 597.6 190.74C598.04 189.846 598.343 189.89 598.51 190.87C599.89 198.96 592.7 204.98 584.98 201.38C579.25 198.71 579.86 192.99 581 187.6C583.24 177.06 594.77 174.65 603.47 178.45C614.9 183.43 618.93 196.52 614.67 207.74C610.78 217.99 599.8 222.97 589.49 223.72C589.47 223.72 589.46 223.73 589.46 223.75V224.03C589.46 224.17 589.527 224.243 589.66 224.25C616.69 225.89 640.96 212.2 649.3 185.55C658.46 156.27 650.45 125.75 623.66 109.3C610.53 101.23 594.18 98.6498 579.19 103.31C567.563 106.93 560.077 114.503 556.73 126.03C553.91 135.75 556.2 146.53 565.46 151.72C572.39 155.59 582.56 156.25 587.67 149.44C590.917 145.12 590.547 141.05 586.56 137.23C584.25 135.02 579.07 134.57 578.33 138.6C577.92 140.85 579.49 142.74 580.27 144.2C580.298 144.25 580.311 144.307 580.307 144.364C580.304 144.421 580.284 144.476 580.25 144.522C580.217 144.568 580.171 144.604 580.117 144.625C580.064 144.646 580.006 144.651 579.95 144.64C574.86 143.79 570.36 139.95 571.91 134.31C574.04 126.56 582.96 124.21 589.54 128.43C593.18 130.763 595.337 133.99 596.01 138.11C597.457 147.003 594.753 153.783 587.9 158.45C576.65 166.1 556.51 159.02 549.54 148.07C538.09 130.06 547.79 106.13 565.8 96.8598C580.78 89.1531 596.37 87.9265 612.57 93.1798C612.66 93.2095 612.757 93.2119 612.848 93.1867C612.94 93.1615 613.021 93.1098 613.083 93.0381C613.145 92.9665 613.185 92.8781 613.197 92.7841C613.209 92.69 613.192 92.5946 613.15 92.5098C609.703 85.4298 608.183 77.9898 608.59 70.1898C609.17 58.9098 616.95 49.2798 628.45 47.9998C643.11 46.3798 655.72 57.4898 654.92 72.3398C654.36 82.6198 645.37 87.1798 636.24 83.9898C631.56 82.3498 629.11 77.2698 630.24 72.3498C631.153 68.3431 633.713 65.6331 637.92 64.2198C639.1 63.8198 639.317 64.1165 638.57 65.1098C636.4 67.9898 634.46 70.8898 637.68 73.9498C641.66 77.7498 646.63 74.4098 647.69 69.8598C648.083 68.1865 647.883 66.4731 647.09 64.7198C641.6 52.5698 624.9 54.3598 619.02 64.6498C612.16 76.6498 617.65 92.1498 628.08 100.57C630.99 102.92 634.34 105.41 636.75 107.73C647 117.6 655.48 131.58 657.85 145.84C658.25 148.266 658.583 149.48 658.85 149.48ZM475.3 209.91C477.38 209.896 477.5 210.38 475.66 211.36C468.28 215.28 462.95 207.78 463.14 201.19C463.26 197.263 464.92 194.16 468.12 191.88C473.93 187.75 483.03 189.68 488.08 194.61C493.37 199.77 493.61 208.7 490.77 215.25C488.49 220.49 484.35 226.25 479.08 228.57C477.54 229.243 477.61 229.58 479.29 229.58H573.98C576.94 229.58 576.987 229.213 574.12 228.48C553.63 223.25 538.15 209.58 525.8 192.4C520.033 184.386 513.01 177.443 504.73 171.57C489.98 161.11 471.54 159.41 456.67 169.96C441.29 180.87 440.4 201.46 450.21 216C453.98 221.57 460.2 224.71 466.57 224.88C476.823 225.153 482.447 220.12 483.44 209.78C483.77 206.3 481.85 201.29 478.16 199.91C468.75 196.4 465.47 209.97 475.3 209.91ZM842.37 209.93C852.21 209.99 848.92 196.41 839.51 199.93C835.82 201.31 833.9 206.32 834.23 209.8C835.223 220.14 840.847 225.173 851.1 224.9C857.48 224.73 863.7 221.59 867.47 216.02C877.28 201.48 876.39 180.88 861.01 169.97C846.14 159.42 827.69 161.12 812.94 171.58C804.66 177.453 797.637 184.396 791.87 192.41C779.51 209.6 764.03 223.27 743.54 228.5C740.673 229.233 740.72 229.6 743.68 229.6H838.38C840.06 229.6 840.13 229.263 838.59 228.59C833.32 226.27 829.18 220.51 826.9 215.27C824.06 208.72 824.3 199.78 829.59 194.62C834.64 189.69 843.74 187.76 849.55 191.89C852.757 194.17 854.42 197.276 854.54 201.21C854.73 207.8 849.39 215.3 842.01 211.38C840.17 210.4 840.29 209.916 842.37 209.93ZM703.99 229.59C706.197 229.59 706.233 229.31 704.1 228.75C702.867 228.423 701.12 227.84 698.86 227C676.07 218.55 663 199.91 659.39 176.22C659.137 174.56 658.867 174.556 658.58 176.21C654.54 199.74 642.22 217.56 619.95 226.69C617.39 227.736 614.713 228.486 611.92 228.94C611.84 228.953 611.817 228.996 611.85 229.07L611.96 229.39C612.013 229.523 612.11 229.59 612.25 229.59H703.99ZM440.26 229.65C448.993 229.683 453.753 229.696 454.54 229.69C455.42 229.69 455.477 229.473 454.71 229.04C448.45 225.513 443.9 220.28 441.06 213.34C440.893 212.926 440.667 212.72 440.38 212.72C440.007 212.72 439.733 212.926 439.56 213.34C436.673 220.26 432.087 225.46 425.8 228.94C425.033 229.366 425.09 229.583 425.97 229.59C426.757 229.603 431.52 229.623 440.26 229.65ZM877.46 229.62C886.167 229.573 890.91 229.543 891.69 229.53C892.57 229.523 892.627 229.306 891.86 228.88C885.587 225.426 881.003 220.253 878.11 213.36C877.937 212.953 877.663 212.75 877.29 212.75C877.01 212.75 876.787 212.956 876.62 213.37C873.807 220.29 869.283 225.516 863.05 229.05C862.29 229.483 862.35 229.7 863.23 229.7C864.01 229.7 868.753 229.673 877.46 229.62Z" fill="#166534"/>
<path d="M1181.31 241.61C1181.31 241.977 1181.23 242.3 1181.06 242.58C1180.88 242.873 1180.62 243.033 1180.27 243.06C1173.92 243.473 1170.42 243.68 1169.75 243.68C1138.86 243.72 1093.45 243.727 1033.5 243.7C941.387 243.66 697.49 243.673 301.81 243.74C192.477 243.76 137.8 243.77 137.78 243.77C137.622 243.788 137.463 243.746 137.334 243.652C137.204 243.557 137.114 243.418 137.08 243.26C136.973 242.787 136.92 242.237 136.92 241.61C136.92 240.977 136.973 240.423 137.08 239.95C137.114 239.792 137.204 239.653 137.334 239.559C137.463 239.464 137.622 239.422 137.78 239.44C137.8 239.44 192.477 239.45 301.81 239.47C697.49 239.543 941.387 239.56 1033.5 239.52C1093.45 239.493 1138.86 239.5 1169.75 239.54C1170.42 239.54 1173.92 239.747 1180.27 240.16C1180.62 240.187 1180.88 240.347 1181.06 240.64C1181.23 240.92 1181.31 241.243 1181.31 241.61Z" fill="#166534"/>
<path d="M1318.4 252.76C1318.4 252.967 1318.26 253.123 1317.99 253.23C1310.77 256.21 1304.6 256.61 1296.71 256.62C1294.89 256.62 1294.3 257.16 1292.98 257.7C1290.69 258.64 1287.98 258.08 1285.8 256.79C1285.52 256.626 1285.2 256.533 1284.87 256.52C1277.69 256.247 1273.4 256.11 1272.01 256.11C817.49 256.023 401.26 256.027 23.3201 256.12C23.1624 256.12 23.0105 256.061 22.8953 255.953C22.7801 255.845 22.7103 255.697 22.7001 255.54C22.6468 254.687 22.6201 253.76 22.6201 252.76C22.6201 251.753 22.6468 250.823 22.7001 249.97C22.7103 249.813 22.7801 249.665 22.8953 249.557C23.0105 249.449 23.1624 249.39 23.3201 249.39C401.26 249.49 817.49 249.497 1272.01 249.41C1273.4 249.41 1277.69 249.273 1284.87 249C1285.2 248.987 1285.52 248.894 1285.8 248.73C1287.98 247.44 1290.69 246.88 1292.98 247.82C1294.3 248.36 1294.89 248.9 1296.71 248.9C1304.6 248.91 1310.77 249.31 1317.99 252.29C1318.26 252.397 1318.4 252.553 1318.4 252.76Z" fill="#166534"/>
<path d="M404.07 381.65C404.087 381.677 404.111 381.7 404.139 381.715C404.168 381.73 404.2 381.737 404.233 381.736C404.266 381.735 404.299 381.726 404.328 381.709C404.357 381.692 404.382 381.668 404.4 381.64L406.76 377.54C406.86 377.367 406.857 377.197 406.75 377.03L381.36 338.97C381.267 338.833 381.228 338.667 381.248 338.502C381.268 338.337 381.347 338.183 381.47 338.07L389.83 330.32C390.217 329.96 390.603 329.96 390.99 330.32L391.55 330.84C391.843 331.113 391.843 331.387 391.55 331.66L384.42 338.27C384.314 338.367 384.246 338.5 384.23 338.643C384.213 338.786 384.249 338.931 384.33 339.05L408.16 374.77C408.353 375.07 408.547 375.07 408.74 374.77C416.813 362.09 423.517 351.433 428.85 342.8C429.963 341 431.117 338.897 432.31 336.49C434.93 331.22 437.45 325.04 434.38 319.67C432.94 317.157 431.21 314.907 429.19 312.92C429.131 312.861 429.088 312.787 429.067 312.707C429.046 312.626 429.046 312.541 429.069 312.46C429.091 312.38 429.134 312.307 429.194 312.249C429.254 312.191 429.329 312.15 429.41 312.13C444.343 308.597 458.157 303.57 470.85 297.05C471.11 296.91 471.307 296.973 471.44 297.24C471.473 297.32 471.493 297.413 471.5 297.52C471.506 297.592 471.496 297.666 471.47 297.737C471.444 297.807 471.403 297.873 471.35 297.93C461.64 307.85 454.09 317.36 446.15 329.98C441.37 337.56 428.577 357.963 407.77 391.19C407.567 391.51 407.46 391.881 407.46 392.26V426.44C407.46 426.727 407.567 426.967 407.78 427.16L419.28 437.83C419.647 438.17 419.577 438.34 419.07 438.34H378.54C378.14 438.34 378.087 438.207 378.38 437.94L389.93 427.23C390.059 427.11 390.163 426.964 390.233 426.803C390.304 426.641 390.34 426.466 390.34 426.29V392.11C390.34 391.77 390.247 391.457 390.06 391.17C375.96 369.597 367.477 356.47 364.61 351.79C358.997 342.61 351.93 334.753 343.41 328.22C342.51 327.533 342.627 327.19 343.76 327.19H385.5C385.566 327.189 385.631 327.208 385.687 327.245C385.742 327.282 385.785 327.335 385.81 327.396C385.834 327.458 385.84 327.526 385.826 327.59C385.812 327.655 385.778 327.714 385.73 327.76L375.54 337.96C375.436 338.063 375.37 338.199 375.356 338.345C375.341 338.491 375.378 338.638 375.46 338.76L404.07 381.65Z" fill="#166534"/>
<path d="M424.75 443.14C425.41 443.14 425.53 442.883 425.11 442.37L412.94 427.66C412.674 427.333 412.54 426.96 412.54 426.54V392.66C412.54 392.353 412.62 392.073 412.78 391.82C419.76 380.82 433.017 359.973 452.55 329.28C458.91 319.287 466.12 310.393 474.18 302.6C474.68 302.12 474.954 302.223 475 302.91C475.09 304.26 475.2 305.53 474.1 306.52C467.094 312.867 459.787 322.09 452.18 334.19C442.434 349.697 430.144 369.01 415.31 392.13C415.017 392.583 414.87 393.08 414.87 393.62V426.01C414.87 426.59 415.057 427.107 415.43 427.56L429.85 444.99C430.15 445.35 430.064 445.53 429.59 445.53H376.62C376.32 445.53 376.1 445.397 375.96 445.13L375.15 443.53C375.13 443.489 375.12 443.443 375.122 443.398C375.124 443.352 375.138 443.307 375.162 443.268C375.186 443.229 375.22 443.197 375.26 443.175C375.299 443.152 375.344 443.14 375.39 443.14H424.75Z" fill="#166534"/>
<path d="M70.2098 395.02C59.9498 390.2 47.6498 388.28 38.6998 386.19C35.4931 385.443 31.9531 384.053 28.0798 382.02C19.7598 377.653 15.0531 370.687 13.9598 361.12C12.6864 350.013 15.6164 341.18 22.7498 334.62C33.3098 324.9 48.0898 324.11 61.5098 326.76C64.4231 327.333 69.5931 328.48 77.0198 330.2C81.7931 331.307 86.3331 330.603 90.6398 328.09C90.9664 327.897 91.2431 327.82 91.4698 327.86C91.6631 327.893 91.8164 327.977 91.9298 328.11C92.1698 328.377 92.1798 328.653 91.9598 328.94C85.6498 337.1 83.0798 345.76 79.1198 354.87C78.7864 355.643 78.4098 356.31 77.9898 356.87C77.9442 356.928 77.8839 356.972 77.8152 356.999C77.7464 357.025 77.6718 357.033 77.5991 357.021C77.5265 357.008 77.4585 356.977 77.4023 356.929C77.3461 356.882 77.3038 356.82 77.2798 356.75C74.8498 349.09 72.7198 341.55 65.3198 337C56.3531 331.493 47.2698 330.993 38.0698 335.5C32.6798 338.14 28.8098 343.99 28.7898 350.15C28.7598 362.7 40.3698 367.88 50.9098 370.4C60.4164 372.673 66.4864 374.17 69.1198 374.89C85.3298 379.29 96.8598 389.65 96.7398 406.86C96.7064 412.133 95.6631 416.783 93.6098 420.81C87.9598 431.94 75.8398 439.18 63.5098 439.97C50.1198 440.84 38.8298 437.53 24.4998 434.19C18.2198 432.723 12.8531 433.173 8.39978 435.54C5.44644 437.113 4.88644 436.5 6.71978 433.7C12.4664 424.927 17.1164 415.457 20.6698 405.29C20.7831 404.963 21.0098 404.787 21.3498 404.76C21.9031 404.727 22.2331 405.027 22.3398 405.66C23.8331 414.713 27.5998 421.593 33.6398 426.3C42.2498 433.01 53.8598 434.88 64.5598 432.94C74.8698 431.07 82.3598 424.49 82.2398 413.47C82.1498 405.72 77.3098 398.35 70.2098 395.02Z" fill="#166534"/>
<path d="M789.27 434.16C795.517 424.58 800.273 414.903 803.54 405.13C803.653 404.777 803.893 404.657 804.26 404.77C804.487 404.837 804.703 404.927 804.91 405.04C805.057 405.12 805.163 405.363 805.23 405.77C808.32 426.32 825.49 435.4 844.88 433.35C856.02 432.18 865.42 425.46 865.11 413.37C864.91 405.88 860.86 399.77 854.66 395.86C852.66 394.6 849.617 393.303 845.53 391.97C840.957 390.47 833.97 388.787 824.57 386.92C821.263 386.26 817.51 385.013 813.31 383.18C802.797 378.593 797.223 370.487 796.59 358.86C795.983 347.607 799.69 338.93 807.71 332.83C822.96 321.25 841.27 325.71 859.2 330.03C864.22 331.237 868.553 330.8 872.2 328.72C875.467 326.86 875.947 327.423 873.64 330.41C867.92 337.8 864.59 349.63 860.99 356.97C860.958 357.033 860.909 357.085 860.849 357.121C860.789 357.157 860.719 357.175 860.649 357.173C860.578 357.171 860.51 357.149 860.452 357.11C860.394 357.07 860.348 357.015 860.32 356.95C858.93 353.51 857.65 348.28 855.72 345.01C849.42 334.35 836.14 330.05 824.46 333.95C819.38 335.643 815.64 338.743 813.24 343.25C810.9 347.63 811 354.08 813.67 358.52C817.1 364.2 823.44 367.37 829.69 369.2C832.13 369.913 839.13 371.707 850.69 374.58C869.57 379.26 882.83 392.4 879.04 412.95C877.473 421.41 872.69 428.34 864.69 433.74C847.26 445.49 825.48 438.48 805.9 433.84C801.007 432.673 795.97 433.293 790.79 435.7C790.277 435.94 790.227 436.253 790.64 436.64L791.53 437.46C791.783 437.693 791.823 437.96 791.65 438.26L787.73 445.05C787.543 445.37 787.263 445.53 786.89 445.53H693.82C693.602 445.53 693.387 445.476 693.195 445.373C693.003 445.27 692.839 445.122 692.72 444.94L691.92 443.75C691.88 443.691 691.856 443.622 691.853 443.55C691.849 443.479 691.865 443.408 691.899 443.344C691.933 443.281 691.984 443.229 692.046 443.193C692.108 443.157 692.178 443.139 692.25 443.14H785.77C786.077 443.14 786.31 443.007 786.47 442.74L789.05 438.27C789.13 438.131 789.16 437.968 789.134 437.808C789.109 437.648 789.03 437.501 788.91 437.39C781.49 430.67 775.873 422.897 772.06 414.07C771.86 413.597 772.01 413.42 772.51 413.54L773.68 413.8C774.147 413.907 774.483 414.18 774.69 414.62C778.157 422.007 782.813 428.543 788.66 434.23C788.893 434.45 789.097 434.427 789.27 434.16Z" fill="#166534"/>
<path d="M951.41 395.03C941.15 390.21 928.85 388.28 919.9 386.19C916.693 385.443 913.153 384.053 909.28 382.02C900.96 377.653 896.257 370.687 895.17 361.12C893.897 350.013 896.827 341.18 903.96 334.62C914.52 324.9 929.3 324.11 942.72 326.76C945.633 327.333 950.803 328.483 958.23 330.21C963.003 331.317 967.543 330.613 971.85 328.1C972.177 327.907 972.453 327.83 972.68 327.87C972.873 327.903 973.027 327.987 973.14 328.12C973.38 328.387 973.39 328.663 973.17 328.95C966.86 337.11 964.29 345.77 960.33 354.88C959.997 355.653 959.62 356.32 959.2 356.88C959.154 356.938 959.094 356.982 959.025 357.009C958.957 357.035 958.882 357.043 958.809 357.031C958.737 357.018 958.669 356.987 958.612 356.939C958.556 356.891 958.514 356.83 958.49 356.76C956.06 349.1 953.93 341.56 946.53 337C937.563 331.493 928.48 330.993 919.28 335.5C913.89 338.14 910.02 343.99 910 350.15C909.97 362.7 921.58 367.88 932.12 370.4C941.627 372.68 947.697 374.18 950.33 374.9C966.54 379.3 978.07 389.66 977.94 406.87C977.907 412.143 976.863 416.793 974.81 420.82C969.16 431.95 957.04 439.19 944.71 439.98C931.32 440.85 920.03 437.54 905.7 434.19C899.42 432.723 894.053 433.173 889.6 435.54C886.647 437.113 886.087 436.5 887.92 433.7C893.667 424.927 898.317 415.457 901.87 405.29C901.983 404.963 902.21 404.787 902.55 404.76C903.103 404.727 903.433 405.027 903.54 405.66C905.033 414.713 908.8 421.593 914.84 426.3C923.45 433.02 935.06 434.89 945.76 432.95C956.07 431.08 963.56 424.5 963.44 413.48C963.35 405.73 958.51 398.36 951.41 395.03Z" fill="#166534"/>
<path d="M618.21 442.91L606.17 429.93C606.01 429.756 605.93 429.55 605.93 429.31V395.3C605.93 394.953 606.1 394.766 606.44 394.74C612.933 394.193 618.613 392.986 623.48 391.12C623.82 390.993 623.94 390.753 623.84 390.4L622.76 386.64C622.68 386.36 622.497 386.243 622.21 386.29L601.57 389.5C601.449 389.517 601.337 389.577 601.257 389.671C601.176 389.765 601.131 389.885 601.13 390.01V427.45C601.13 427.776 601.24 428.056 601.46 428.29L610.45 437.99C610.477 438.02 610.495 438.058 610.501 438.098C610.507 438.139 610.501 438.18 610.484 438.217C610.467 438.254 610.44 438.286 610.405 438.307C610.371 438.329 610.331 438.34 610.29 438.34H573.51C573.063 438.34 573.003 438.186 573.33 437.88L583.65 428.32C583.89 428.1 584.01 427.826 584.01 427.5V399.57C584.01 399.096 583.78 398.923 583.32 399.05L574.05 401.71C573.623 401.836 573.33 401.69 573.17 401.27L573.02 400.85C572.978 400.735 572.959 400.613 572.966 400.491C572.973 400.369 573.004 400.249 573.059 400.141C573.113 400.032 573.189 399.935 573.282 399.858C573.375 399.78 573.484 399.723 573.6 399.69L583.67 396.8C583.91 396.733 584.03 396.573 584.03 396.32V392.73C584.03 392.416 583.873 392.27 583.56 392.29C579.433 392.536 575.227 393.363 570.94 394.77C570.849 394.8 570.751 394.804 570.658 394.781C570.564 394.759 570.479 394.71 570.412 394.641C570.346 394.572 570.3 394.486 570.28 394.392C570.26 394.298 570.267 394.2 570.3 394.11L573.69 385.04C573.72 384.963 573.772 384.898 573.84 384.851C573.908 384.805 573.988 384.78 574.07 384.78H583.27C583.461 384.78 583.644 384.703 583.779 384.566C583.914 384.429 583.99 384.243 583.99 384.05V342.43C583.99 342.263 583.942 342.099 583.852 341.957C583.762 341.815 583.633 341.702 583.48 341.63L575.8 338.09C575.738 338.06 575.686 338.015 575.648 337.958C575.61 337.901 575.588 337.836 575.585 337.769C575.582 337.701 575.598 337.635 575.63 337.577C575.663 337.519 575.711 337.471 575.77 337.44C592.283 328.08 610.047 324.5 629.06 326.7C643.9 328.42 662.19 337.92 661.18 355.54C660.34 370.22 646.35 379.78 632.95 382.78C632.859 382.801 632.773 382.841 632.699 382.898C632.625 382.955 632.563 383.027 632.519 383.109C632.475 383.191 632.448 383.282 632.441 383.375C632.435 383.468 632.448 383.562 632.48 383.65C638.867 400.416 647.737 415.603 659.09 429.21C661.997 432.696 665.12 435.816 668.46 438.57C668.526 438.622 668.576 438.691 668.605 438.769C668.634 438.848 668.642 438.933 668.626 439.015C668.611 439.097 668.573 439.174 668.518 439.236C668.462 439.299 668.39 439.345 668.31 439.37C659.077 442.39 650.307 446.75 642 452.45C641.911 452.51 641.808 452.547 641.701 452.557C641.594 452.566 641.486 452.549 641.387 452.506C641.288 452.463 641.202 452.396 641.136 452.311C641.07 452.226 641.027 452.126 641.01 452.02C637.87 431.093 632.56 411.333 625.08 392.74C625.053 392.675 625.013 392.617 624.963 392.568C624.912 392.519 624.853 392.481 624.787 392.456C624.722 392.43 624.652 392.419 624.582 392.421C624.512 392.424 624.443 392.44 624.38 392.47C619.747 394.636 614.547 396.04 608.78 396.68C608.427 396.72 608.25 396.92 608.25 397.28V428.72C608.25 429.041 608.372 429.349 608.59 429.58L622.94 445.06C622.977 445.099 623.001 445.149 623.01 445.202C623.019 445.255 623.013 445.31 622.992 445.359C622.971 445.409 622.936 445.452 622.891 445.482C622.846 445.512 622.794 445.529 622.74 445.53H579.31C578.93 445.53 578.633 445.373 578.42 445.06L577.48 443.65C577.447 443.6 577.429 443.542 577.427 443.482C577.425 443.422 577.439 443.363 577.467 443.311C577.496 443.259 577.538 443.215 577.59 443.185C577.641 443.155 577.7 443.139 577.76 443.14H618.11C618.136 443.138 618.161 443.13 618.183 443.115C618.204 443.1 618.221 443.08 618.231 443.056C618.242 443.032 618.245 443.006 618.241 442.98C618.238 442.954 618.227 442.93 618.21 442.91ZM639.5 348.15C637.61 347.07 635.14 344.88 633.24 343.81C625.76 339.59 617.577 338.57 608.69 340.75C608.39 340.823 608.24 341.01 608.24 341.31V381.05C608.241 381.129 608.258 381.208 608.291 381.28C608.325 381.352 608.373 381.416 608.433 381.468C608.493 381.519 608.563 381.556 608.638 381.578C608.714 381.599 608.793 381.603 608.87 381.59C620.3 379.73 635.63 375.14 640.62 364.15C647.57 348.87 637.32 334.58 621.49 332.56C614.363 331.653 607.737 332.546 601.61 335.24C601.29 335.38 601.13 335.623 601.13 335.97V381.6C601.13 382.1 601.377 382.313 601.87 382.24L605.31 381.7C605.482 381.676 605.639 381.59 605.753 381.457C605.867 381.325 605.93 381.156 605.93 380.98V339.27C605.93 339.174 605.963 339.081 606.023 339.007C606.083 338.932 606.166 338.88 606.26 338.86C617.01 336.49 633.16 336.85 639.71 347.93C639.726 347.96 639.732 347.994 639.727 348.027C639.723 348.06 639.708 348.092 639.685 348.116C639.661 348.14 639.631 348.157 639.598 348.163C639.565 348.169 639.53 348.164 639.5 348.15Z" fill="#166534"/>
<path d="M153.84 443.14C153.884 443.142 153.927 443.131 153.964 443.108C154.001 443.085 154.031 443.052 154.049 443.012C154.067 442.972 154.073 442.928 154.066 442.885C154.059 442.842 154.04 442.802 154.01 442.77C151.023 439.297 148.507 435.863 146.46 432.47C140.12 421.98 146.15 406.75 150.55 395.96C150.737 395.507 150.657 395.11 150.31 394.77L147.39 391.84C147.03 391.487 146.773 391.55 146.62 392.03C144.667 398.097 142.657 404.28 140.59 410.58C139.983 412.433 139.493 414.877 139.12 417.91C138.02 427.01 142.78 431.47 148.49 437.82C148.531 437.864 148.558 437.92 148.568 437.979C148.578 438.039 148.57 438.1 148.545 438.155C148.521 438.211 148.481 438.258 148.43 438.29C148.38 438.323 148.32 438.34 148.26 438.34H106.99C106.217 438.34 106.173 438.163 106.86 437.81C118.67 431.67 126.33 421.73 131.72 409.5C134.853 402.38 137.643 394.87 140.09 386.97C140.119 386.871 140.117 386.765 140.083 386.667C140.049 386.568 139.985 386.482 139.9 386.42C136.253 383.833 132.09 382.397 127.41 382.11C127.34 382.104 127.272 382.08 127.214 382.04C127.155 382 127.108 381.946 127.077 381.883C127.046 381.819 127.032 381.749 127.036 381.678C127.04 381.608 127.062 381.539 127.1 381.48C130.073 376.92 132.34 372.357 133.9 367.79C133.926 367.709 133.973 367.637 134.038 367.581C134.103 367.525 134.184 367.487 134.272 367.47C134.361 367.453 134.454 367.458 134.545 367.484C134.635 367.51 134.719 367.557 134.79 367.62L143.72 375.72C144.067 376.033 144.323 375.97 144.49 375.53L145.62 372.5C145.692 372.308 145.702 372.099 145.649 371.901C145.595 371.704 145.48 371.528 145.32 371.4L137.21 364.94C137.139 364.884 137.08 364.814 137.036 364.734C136.992 364.655 136.964 364.568 136.954 364.478C136.944 364.388 136.951 364.297 136.976 364.209C137.001 364.122 137.043 364.041 137.1 363.97L137.93 362.93C138.17 362.63 138.443 362.6 138.75 362.84L146.79 369.25C146.799 369.257 146.81 369.262 146.822 369.264C146.834 369.267 146.846 369.266 146.857 369.263C146.868 369.261 146.879 369.255 146.888 369.248C146.897 369.24 146.905 369.231 146.91 369.22L158.64 337.88C158.793 337.467 158.72 337.097 158.42 336.77L150.03 327.73C149.986 327.684 149.958 327.626 149.947 327.564C149.936 327.502 149.944 327.438 149.97 327.38C149.995 327.322 150.038 327.273 150.091 327.24C150.144 327.206 150.207 327.189 150.27 327.19H188.75C189.27 327.19 189.357 327.387 189.01 327.78L180.79 337.04C180.687 337.154 180.617 337.293 180.587 337.443C180.557 337.593 180.569 337.747 180.62 337.89L194.32 375.06C194.387 375.247 194.507 375.297 194.68 375.21L197.82 373.6C197.987 373.52 198.037 373.393 197.97 373.22L185.63 339.72C185.503 339.373 185.56 339.063 185.8 338.79L194.16 329.12C194.42 328.82 194.733 328.74 195.1 328.88L196.1 329.25C196.407 329.363 196.457 329.547 196.25 329.8L188.46 339.59C188.377 339.694 188.323 339.817 188.302 339.947C188.281 340.076 188.294 340.209 188.34 340.33L199.87 371.63C199.896 371.703 199.94 371.768 199.996 371.82C200.053 371.873 200.121 371.911 200.194 371.932C200.268 371.952 200.345 371.955 200.419 371.939C200.493 371.923 200.562 371.889 200.62 371.84L207.24 366.36C207.281 366.325 207.331 366.302 207.385 366.292C207.438 366.282 207.493 366.287 207.545 366.305C207.597 366.323 207.644 366.354 207.682 366.395C207.719 366.436 207.746 366.486 207.76 366.54C209.1 372.333 211.24 377.803 214.18 382.95C214.207 382.995 214.222 383.046 214.222 383.099C214.222 383.151 214.208 383.203 214.182 383.248C214.155 383.293 214.116 383.33 214.07 383.355C214.024 383.38 213.972 383.392 213.92 383.39C208.99 383.33 203.64 383.34 199.13 385.56C198.843 385.7 198.757 385.917 198.87 386.21L214.2 427.83C214.273 428.03 214.393 428.197 214.56 428.33L226.64 437.95C226.967 438.21 226.92 438.34 226.5 438.34H184.62C183.987 438.34 183.913 438.14 184.4 437.74L195.29 428.73C195.463 428.583 195.51 428.403 195.43 428.19L186.43 403.74C186.404 403.671 186.361 403.609 186.305 403.56C186.25 403.511 186.183 403.476 186.11 403.459C186.038 403.443 185.963 403.444 185.891 403.463C185.82 403.482 185.754 403.519 185.7 403.57C180.213 408.91 175.577 414.64 171.79 420.76C171.603 421.06 171.33 421.2 170.97 421.18L169.95 421.11C169.892 421.106 169.837 421.087 169.788 421.056C169.74 421.024 169.7 420.981 169.673 420.93C169.646 420.879 169.633 420.822 169.634 420.764C169.635 420.706 169.651 420.65 169.68 420.6C173.69 413.71 179.45 407.12 185.27 401.31C185.37 401.203 185.39 401.087 185.33 400.96L183.73 397.54C183.717 397.511 183.696 397.486 183.671 397.466C183.646 397.447 183.617 397.434 183.585 397.428C183.554 397.422 183.522 397.423 183.491 397.433C183.461 397.442 183.433 397.458 183.41 397.48C176.937 402.98 171.52 409.327 167.16 416.52C167.115 416.592 167.067 416.663 167.019 416.727C166.971 416.791 166.924 416.847 166.882 416.891C166.84 416.934 166.804 416.965 166.776 416.981C166.748 416.996 166.729 416.996 166.72 416.98L153.64 398.15C153.207 397.523 152.9 397.39 152.72 397.75C147.19 408.8 142.19 422.32 149.54 433.44C152.273 437.593 155.24 441.48 158.44 445.1C158.472 445.137 158.493 445.183 158.5 445.232C158.508 445.28 158.501 445.33 158.481 445.375C158.461 445.42 158.429 445.459 158.388 445.486C158.347 445.514 158.299 445.529 158.25 445.53H112.67C112.39 445.53 112.157 445.427 111.97 445.22L110.56 443.7C110.514 443.653 110.484 443.594 110.472 443.53C110.46 443.466 110.468 443.4 110.493 443.34C110.519 443.28 110.562 443.229 110.616 443.194C110.671 443.158 110.735 443.139 110.8 443.14H153.84ZM155.8 380.61L166.32 352.48C166.52 351.96 166.523 351.44 166.33 350.92L164.52 346.01C164.28 345.357 164.04 345.353 163.8 346L150.69 381.03C150.621 381.215 150.608 381.415 150.65 381.609C150.693 381.802 150.79 381.979 150.93 382.12C156.74 387.85 159.93 392.51 166.34 400.94C166.633 401.333 166.933 401.337 167.24 400.95L169.25 398.42C169.543 398.053 169.56 397.673 169.3 397.28C165.673 391.933 161.237 386.66 155.99 381.46C155.743 381.22 155.68 380.937 155.8 380.61ZM171.39 395.93L179.74 386.93C179.794 386.873 179.831 386.802 179.847 386.726C179.863 386.65 179.857 386.572 179.83 386.5L168.68 356.25C168.413 355.523 168.137 355.52 167.85 356.24L158.85 379.11C158.702 379.487 158.668 379.899 158.754 380.296C158.839 380.692 159.039 381.056 159.33 381.34C163.803 385.76 167.65 390.607 170.87 395.88C171.023 396.127 171.197 396.143 171.39 395.93Z" fill="#166534"/>
<path d="M282.48 443.14C282.98 443.14 283.053 442.963 282.7 442.61L278.9 438.81C278.586 438.497 278.206 438.34 277.76 438.34H239.84C238.646 438.34 238.62 438.153 239.76 437.78C243.953 436.407 247.886 433.747 251.56 429.8C252.766 428.5 253.71 425.88 254.39 421.94C255.256 416.9 255.69 411.91 255.69 406.97C255.683 400.17 255.67 376.97 255.65 337.37C255.65 337.05 255.536 336.793 255.31 336.6L244.81 327.73C244.39 327.37 244.453 327.19 245 327.19H286.3C287.493 327.19 287.593 327.523 286.6 328.19L276.24 335.09C276.115 335.176 276.026 335.304 275.99 335.449C275.953 335.595 275.971 335.748 276.04 335.88L317 416.37C317.306 416.963 317.463 416.927 317.47 416.26C317.503 414.253 317.556 412.013 317.63 409.54C317.67 408.08 317.143 406.28 316.05 404.14C313.89 399.9 302.506 377.613 281.9 337.28C281.841 337.164 281.828 337.031 281.861 336.906C281.894 336.78 281.972 336.672 282.08 336.6L293.36 329.08C293.499 328.985 293.668 328.941 293.836 328.958C294.004 328.974 294.161 329.049 294.28 329.17L294.93 329.82C295.276 330.167 295.246 330.477 294.84 330.75L285.38 337.06C285.175 337.198 285.027 337.405 284.964 337.643C284.902 337.881 284.928 338.132 285.04 338.35L316.9 400.94C317.306 401.74 317.51 401.69 317.51 400.79C317.523 390.783 317.523 376.02 317.51 356.5C317.503 350.613 317.166 345.543 316.5 341.29C315.5 334.88 309.99 330.55 304.59 328.13C303.21 327.51 303.273 327.2 304.78 327.2H340.73C342.123 327.2 342.193 327.507 340.94 328.12C333.93 331.55 328.22 336.17 326.55 344.03C325.616 348.437 325.15 352.593 325.15 356.5C325.21 405.547 325.23 432.69 325.21 437.93C325.21 438.203 325.073 438.34 324.8 438.34H311.04C310.934 438.34 310.831 438.312 310.741 438.257C310.651 438.202 310.578 438.124 310.53 438.03L270.37 360.05C270.036 359.397 269.87 359.437 269.87 360.17C269.89 374.29 269.89 389.453 269.87 405.66C269.87 411.09 270.26 417.54 270.83 422.02C271.49 427.267 273.923 431.627 278.13 435.1C278.139 435.106 278.146 435.115 278.15 435.125C278.154 435.135 278.156 435.147 278.155 435.158C278.154 435.17 278.151 435.182 278.144 435.192C278.138 435.203 278.13 435.213 278.12 435.22L277.89 435.37C277.827 435.412 277.754 435.436 277.68 435.437C277.605 435.439 277.532 435.419 277.47 435.38C274.203 433.34 271.913 430.86 270.6 427.94C268.666 423.607 267.636 418.07 267.51 411.33C267.51 411.277 267.54 392.827 267.6 355.98C267.6 355.454 267.476 354.937 267.24 354.47L263.33 346.78C263.043 346.213 262.896 346.25 262.89 346.89C262.796 377.457 262.75 393.167 262.75 394.02C262.736 400.607 263.05 407.683 263.69 415.25C264.13 420.38 265.01 426.75 268.43 430.52C271.1 433.47 274.97 435.68 278.76 436.93C280.14 437.383 281.246 438.087 282.08 439.04C282.5 439.527 284.343 441.57 287.61 445.17C287.639 445.199 287.658 445.236 287.665 445.277C287.672 445.317 287.667 445.359 287.65 445.397C287.633 445.435 287.605 445.468 287.57 445.492C287.534 445.515 287.492 445.529 287.45 445.53H241.56C241.412 445.53 241.267 445.489 241.14 445.411C241.013 445.334 240.909 445.222 240.84 445.09L240.13 443.68C239.943 443.32 240.053 443.14 240.46 443.14H282.48Z" fill="#166534"/>
<path d="M475.3 429.53C475.424 429.437 475.525 429.316 475.595 429.177C475.664 429.038 475.7 428.885 475.7 428.73V337.94C475.7 337.523 475.543 337.122 475.26 336.82L466.82 327.72C466.778 327.677 466.75 327.623 466.739 327.565C466.728 327.506 466.735 327.446 466.759 327.391C466.782 327.336 466.822 327.29 466.872 327.258C466.922 327.225 466.981 327.209 467.04 327.21C479.527 327.163 490.93 327.167 501.25 327.22C512.1 327.28 523.56 328.65 532.41 333.59C545.61 340.96 552.81 354.95 554.51 369.75C557.72 397.76 551.44 430.34 518.97 436.94C515.083 437.727 510.94 438.157 506.54 438.23C497.033 438.39 483.093 438.403 464.72 438.27C464.253 438.263 464.203 438.12 464.57 437.84L475.3 429.53ZM524.29 346.05C516.43 342.597 508.32 341.39 499.96 342.43C499.795 342.452 499.643 342.533 499.533 342.658C499.422 342.783 499.361 342.943 499.36 343.11V430.93C499.36 431.263 499.523 431.437 499.85 431.45C505.123 431.657 509.487 431.297 512.94 430.37C523.8 427.44 530.68 416.13 533.19 405.69C536.703 391.097 537 376.467 534.08 361.8C533.36 358.167 532.113 354.56 530.34 350.98C522.91 335.96 508.28 334.76 493.33 334.92C493.208 334.92 493.091 334.968 493.005 335.055C492.919 335.141 492.87 335.258 492.87 335.38V431.22C492.87 431.46 492.987 431.58 493.22 431.58H496.96C497.147 431.58 497.24 431.483 497.24 431.29V341.03C497.24 340.717 497.397 340.527 497.71 340.46C506.6 338.61 517.49 339.12 524.39 345.9C524.63 346.14 524.597 346.19 524.29 346.05Z" fill="#166534"/>
<path d="M722.94 342.29V374.51C722.94 374.595 722.973 374.676 723.031 374.736C723.089 374.796 723.168 374.83 723.25 374.83H738.44C738.595 374.83 738.748 374.792 738.885 374.721C739.023 374.65 739.141 374.547 739.23 374.42L749.69 360.08C750.01 359.64 750.17 359.694 750.17 360.24V395.95C750.17 396.444 750.02 396.497 749.72 396.11L739.3 382.64C739.2 382.512 739.074 382.409 738.93 382.338C738.786 382.267 738.629 382.23 738.47 382.23H715.93C715.84 382.23 715.754 382.266 715.69 382.33C715.626 382.394 715.59 382.48 715.59 382.57V430.62C715.59 430.727 715.647 430.78 715.76 430.78H720.66C720.814 430.78 720.89 430.704 720.89 430.55V386.69C720.89 386.589 720.931 386.493 721.004 386.421C721.078 386.35 721.177 386.31 721.28 386.31H738.99C739.604 386.31 740.117 386.534 740.53 386.98L741.47 387.99C741.501 388.024 741.521 388.066 741.528 388.111C741.536 388.156 741.53 388.202 741.512 388.244C741.495 388.286 741.465 388.322 741.428 388.348C741.39 388.374 741.346 388.389 741.3 388.39H723.37C723.259 388.39 723.152 388.433 723.073 388.51C722.994 388.587 722.95 388.691 722.95 388.8V430.08C722.95 430.414 723.117 430.587 723.45 430.6C727.477 430.754 731.487 430.66 735.48 430.32C741.187 429.827 745.137 429.247 747.33 428.58C757.02 425.62 760.56 417.43 765.16 409.22C765.487 408.64 765.717 408.677 765.85 409.33C767.084 415.477 769.387 421.194 772.76 426.48C773.527 427.687 776.49 431.167 781.65 436.92C781.884 437.18 781.827 437.31 781.48 437.31H685.91C685.424 437.31 685.374 437.16 685.76 436.86L697.61 427.69C698.137 427.277 698.4 426.737 698.4 426.07V389.02C698.4 388.654 698.22 388.494 697.86 388.54C693.427 389.107 689.407 390.424 685.8 392.49C685.427 392.704 685.094 392.654 684.8 392.34L684.23 391.73C683.897 391.37 683.94 391.067 684.36 390.82C688.48 388.38 693 386.927 697.92 386.46C698.051 386.45 698.174 386.39 698.263 386.292C698.352 386.193 698.401 386.064 698.4 385.93V382.77C698.4 382.464 698.25 382.304 697.95 382.29C691.59 381.937 685.897 383.797 680.87 387.87C680.544 388.13 680.43 388.057 680.53 387.65C682.404 379.877 688.08 375.56 697.56 374.7C698.114 374.654 698.39 374.354 698.39 373.8V338.29C698.39 337.964 698.264 337.697 698.01 337.49L685.95 327.88C685.364 327.414 685.444 327.18 686.19 327.18H776.71C776.794 327.18 776.876 327.204 776.946 327.248C777.017 327.293 777.073 327.357 777.109 327.432C777.144 327.508 777.158 327.592 777.147 327.675C777.137 327.758 777.103 327.836 777.05 327.9C771.41 334.594 766.897 342.047 763.51 350.26C762.864 351.834 762.447 352.77 762.26 353.07C762.047 353.424 761.867 353.407 761.72 353.02C758.37 344.22 753.03 336.41 743.27 335.17C734.484 334.057 725.414 333.997 716.06 334.99C715.74 335.024 715.58 335.2 715.58 335.52V374.45C715.58 374.704 715.707 374.83 715.96 374.83H720.48C720.747 374.83 720.88 374.694 720.88 374.42V339.78C720.88 339.644 720.931 339.512 721.024 339.412C721.117 339.312 721.244 339.25 721.38 339.24C727.68 338.66 734.09 338.57 740.61 338.97C748.357 339.444 754.307 342.864 758.46 349.23C758.508 349.295 758.53 349.375 758.521 349.455C758.512 349.535 758.474 349.608 758.414 349.661C758.353 349.714 758.275 349.742 758.195 349.74C758.115 349.738 758.038 349.706 757.98 349.65C755.767 347.73 753.097 345.774 749.97 343.78C746.42 341.51 743.07 341.59 737.98 341.44C733.334 341.314 728.484 341.424 723.43 341.77C723.104 341.79 722.94 341.964 722.94 342.29Z" fill="#166534"/>
<path d="M1024.28 431.7V340.53C1024.28 340.216 1024.4 339.918 1024.62 339.7L1033.09 331.23C1033.14 331.182 1033.2 331.145 1033.26 331.12C1033.32 331.095 1033.39 331.084 1033.46 331.087C1033.52 331.09 1033.59 331.107 1033.65 331.136C1033.71 331.166 1033.77 331.208 1033.81 331.26L1034.25 331.79C1034.53 332.13 1034.52 332.456 1034.22 332.77L1026.6 340.99C1026.45 341.151 1026.37 341.361 1026.37 341.58V431.54C1026.37 431.926 1026.56 432.133 1026.94 432.16C1042.61 433.37 1056.43 431.19 1061.96 414.21C1062.25 413.323 1062.9 410.933 1063.93 407.04C1064.04 406.613 1064.17 406.61 1064.32 407.03C1068.13 418.09 1072.94 429.6 1080.4 438.02C1080.42 438.047 1080.44 438.08 1080.45 438.116C1080.45 438.152 1080.45 438.189 1080.43 438.222C1080.41 438.256 1080.39 438.285 1080.36 438.306C1080.33 438.326 1080.29 438.338 1080.25 438.34H991.49C990.917 438.34 990.85 438.16 991.29 437.8L1001.92 429.01C1002.21 428.763 1002.36 428.45 1002.36 428.07V338.75C1002.36 338.416 1002.24 338.136 1002 337.91L991.04 327.75C990.647 327.383 990.72 327.2 991.26 327.2H1031.24C1031.28 327.199 1031.31 327.209 1031.34 327.228C1031.37 327.248 1031.4 327.276 1031.41 327.31C1031.43 327.344 1031.43 327.381 1031.42 327.416C1031.41 327.452 1031.4 327.485 1031.37 327.51L1019.89 338.99C1019.66 339.223 1019.54 339.506 1019.54 339.84V431.56C1019.54 431.773 1019.64 431.88 1019.85 431.88H1024.11C1024.16 431.88 1024.2 431.861 1024.23 431.827C1024.26 431.793 1024.28 431.748 1024.28 431.7Z" fill="#166534"/>
<path d="M1089.41 436.91L1099.43 428.62C1099.52 428.542 1099.6 428.443 1099.65 428.331C1099.7 428.219 1099.73 428.096 1099.73 427.97V338.56C1099.73 338.354 1099.65 338.177 1099.5 338.03L1088.38 327.71C1088.01 327.37 1088.07 327.2 1088.58 327.2H1127.69C1128.41 327.2 1128.52 327.454 1128.01 327.96L1117.34 338.63C1117.05 338.925 1116.88 339.321 1116.88 339.73V428.74C1116.88 428.885 1116.91 429.027 1116.97 429.159C1117.03 429.29 1117.12 429.406 1117.23 429.5L1127.12 437.8C1127.55 438.16 1127.49 438.34 1126.93 438.34H1089.75C1089.22 438.34 1088.84 438.58 1088.62 439.06L1085.86 445.06C1085.79 445.201 1085.69 445.32 1085.56 445.403C1085.42 445.487 1085.27 445.531 1085.11 445.53H995.76C995.334 445.53 994.97 445.38 994.67 445.08L993.46 443.87C992.974 443.384 993.077 443.14 993.77 443.14H1084.13C1084.44 443.14 1084.65 443.004 1084.78 442.73L1086.8 438.34C1086.97 437.98 1086.93 437.64 1086.69 437.32C1080.4 429.194 1075.35 420.367 1071.56 410.84C1071.55 410.813 1071.55 410.783 1071.55 410.754C1071.56 410.725 1071.58 410.699 1071.6 410.679C1071.62 410.659 1071.65 410.645 1071.67 410.64C1071.7 410.635 1071.73 410.639 1071.76 410.65L1073.89 411.64C1074.11 411.74 1074.27 411.9 1074.37 412.12C1078.11 420.474 1082.88 428.704 1088.68 436.81C1088.89 437.104 1089.13 437.137 1089.41 436.91Z" fill="#166534"/>
<path d="M1180.73 443.14C1181.23 443.14 1181.3 442.963 1180.95 442.61L1177.15 438.81C1176.84 438.497 1176.46 438.34 1176.01 438.34H1138.09C1136.9 438.34 1136.87 438.153 1138.01 437.78C1142.2 436.407 1146.14 433.747 1149.81 429.8C1151.02 428.5 1151.96 425.88 1152.64 421.94C1153.51 416.9 1153.94 411.91 1153.94 406.97C1153.93 400.17 1153.92 376.97 1153.9 337.37C1153.9 337.05 1153.79 336.793 1153.56 336.6L1143.06 327.73C1142.64 327.37 1142.7 327.19 1143.25 327.19H1184.55C1185.74 327.19 1185.84 327.523 1184.85 328.19L1174.49 335.09C1174.37 335.176 1174.28 335.304 1174.24 335.449C1174.2 335.595 1174.22 335.748 1174.29 335.88L1215.25 416.37C1215.56 416.963 1215.71 416.927 1215.72 416.26C1215.75 414.253 1215.81 412.013 1215.88 409.54C1215.92 408.08 1215.39 406.28 1214.3 404.14C1212.14 399.9 1200.76 377.613 1180.15 337.28C1180.09 337.164 1180.08 337.031 1180.11 336.906C1180.14 336.78 1180.22 336.672 1180.33 336.6L1191.61 329.08C1191.75 328.985 1191.92 328.941 1192.09 328.958C1192.25 328.974 1192.41 329.049 1192.53 329.17L1193.18 329.82C1193.53 330.167 1193.5 330.477 1193.09 330.75L1183.63 337.06C1183.43 337.198 1183.28 337.405 1183.21 337.643C1183.15 337.881 1183.18 338.132 1183.29 338.35L1215.15 400.94C1215.56 401.74 1215.76 401.69 1215.76 400.79C1215.77 390.783 1215.77 376.02 1215.76 356.5C1215.75 350.613 1215.42 345.543 1214.75 341.29C1213.75 334.88 1208.24 330.55 1202.84 328.13C1201.46 327.51 1201.52 327.2 1203.03 327.2H1238.98C1240.37 327.2 1240.44 327.507 1239.19 328.12C1232.18 331.55 1226.47 336.17 1224.8 344.03C1223.87 348.437 1223.4 352.593 1223.4 356.5C1223.46 405.547 1223.48 432.69 1223.46 437.93C1223.46 438.203 1223.32 438.34 1223.05 438.34H1209.29C1209.18 438.34 1209.08 438.312 1208.99 438.257C1208.9 438.202 1208.83 438.124 1208.78 438.03L1168.62 360.05C1168.29 359.397 1168.12 359.437 1168.12 360.17C1168.14 374.29 1168.14 389.453 1168.12 405.66C1168.12 411.09 1168.51 417.54 1169.08 422.02C1169.74 427.267 1172.17 431.627 1176.38 435.1C1176.39 435.106 1176.4 435.115 1176.4 435.125C1176.4 435.135 1176.41 435.147 1176.41 435.158C1176.4 435.17 1176.4 435.182 1176.39 435.192C1176.39 435.203 1176.38 435.213 1176.37 435.22L1176.14 435.37C1176.08 435.412 1176 435.436 1175.93 435.437C1175.86 435.439 1175.78 435.419 1175.72 435.38C1172.45 433.34 1170.16 430.86 1168.85 427.94C1166.92 423.607 1165.89 418.07 1165.76 411.33C1165.76 411.277 1165.79 392.827 1165.85 355.98C1165.85 355.454 1165.73 354.937 1165.49 354.47L1161.58 346.78C1161.29 346.213 1161.15 346.25 1161.14 346.89C1161.05 377.457 1161 393.167 1161 394.02C1160.99 400.607 1161.3 407.683 1161.94 415.25C1162.38 420.38 1163.26 426.75 1166.68 430.52C1169.35 433.47 1173.22 435.68 1177.01 436.93C1178.39 437.383 1179.5 438.087 1180.33 439.04C1180.75 439.527 1182.59 441.57 1185.86 445.17C1185.89 445.199 1185.91 445.236 1185.92 445.277C1185.92 445.317 1185.92 445.359 1185.9 445.397C1185.88 445.435 1185.86 445.468 1185.82 445.492C1185.78 445.515 1185.74 445.529 1185.7 445.53H1139.81C1139.66 445.53 1139.52 445.489 1139.39 445.411C1139.26 445.334 1139.16 445.222 1139.09 445.09L1138.38 443.68C1138.19 443.32 1138.3 443.14 1138.71 443.14H1180.73Z" fill="#166534"/>
<path d="M1288.17 341.78C1287.84 341.8 1287.68 341.973 1287.68 342.3L1287.67 374.5C1287.67 374.585 1287.7 374.666 1287.76 374.726C1287.82 374.786 1287.9 374.82 1287.98 374.82H1303.15C1303.3 374.82 1303.46 374.783 1303.59 374.712C1303.73 374.641 1303.85 374.537 1303.94 374.41L1314.4 360.09C1314.72 359.65 1314.88 359.703 1314.88 360.25L1314.87 395.93C1314.87 396.423 1314.72 396.477 1314.42 396.09L1304.01 382.63C1303.91 382.502 1303.78 382.399 1303.64 382.328C1303.5 382.257 1303.34 382.22 1303.18 382.22L1280.66 382.21C1280.62 382.21 1280.57 382.219 1280.53 382.236C1280.49 382.253 1280.45 382.278 1280.42 382.31C1280.39 382.341 1280.36 382.379 1280.35 382.42C1280.33 382.461 1280.32 382.505 1280.32 382.55L1280.3 430.56C1280.3 430.667 1280.36 430.72 1280.47 430.72H1285.36C1285.51 430.72 1285.59 430.643 1285.59 430.49L1285.61 386.67C1285.61 386.569 1285.65 386.473 1285.72 386.401C1285.8 386.33 1285.9 386.29 1286 386.29H1303.7C1304.31 386.29 1304.83 386.513 1305.24 386.96L1306.18 387.97C1306.21 388.004 1306.23 388.046 1306.24 388.091C1306.25 388.136 1306.24 388.182 1306.22 388.224C1306.2 388.266 1306.18 388.302 1306.14 388.328C1306.1 388.354 1306.06 388.368 1306.01 388.37H1288.09C1287.98 388.37 1287.87 388.413 1287.79 388.49C1287.71 388.567 1287.67 388.671 1287.67 388.78L1287.65 430.03C1287.65 430.363 1287.82 430.537 1288.15 430.55C1292.18 430.703 1296.18 430.61 1300.17 430.27C1305.88 429.777 1309.83 429.2 1312.02 428.54C1321.7 425.58 1325.24 417.4 1329.84 409.2C1330.17 408.62 1330.4 408.657 1330.53 409.31C1331.76 415.45 1334.06 421.163 1337.43 426.45C1338.2 427.657 1341.16 431.137 1346.31 436.89C1346.54 437.143 1346.49 437.27 1346.14 437.27L1250.64 437.23C1250.15 437.23 1250.1 437.08 1250.49 436.78L1262.33 427.63C1262.86 427.217 1263.12 426.677 1263.12 426.01L1263.14 388.99C1263.14 388.623 1262.96 388.463 1262.6 388.51C1258.17 389.07 1254.15 390.383 1250.55 392.45C1250.18 392.663 1249.84 392.613 1249.55 392.3L1248.98 391.69C1248.65 391.33 1248.69 391.027 1249.11 390.78C1253.22 388.34 1257.74 386.89 1262.66 386.43C1262.79 386.42 1262.91 386.36 1263 386.261C1263.09 386.163 1263.14 386.034 1263.14 385.9V382.74C1263.14 382.433 1262.99 382.273 1262.69 382.26C1256.34 381.907 1250.65 383.763 1245.62 387.83C1245.29 388.09 1245.18 388.017 1245.28 387.61C1247.15 379.843 1252.83 375.533 1262.3 374.68C1262.85 374.633 1263.13 374.333 1263.13 373.78L1263.15 338.29C1263.15 337.963 1263.02 337.697 1262.77 337.49L1250.72 327.89C1250.13 327.423 1250.21 327.19 1250.96 327.19L1341.42 327.22C1341.5 327.22 1341.59 327.243 1341.66 327.288C1341.73 327.333 1341.78 327.397 1341.82 327.472C1341.85 327.548 1341.87 327.632 1341.86 327.714C1341.85 327.797 1341.81 327.876 1341.76 327.94C1336.12 334.627 1331.61 342.073 1328.22 350.28C1327.57 351.853 1327.16 352.79 1326.97 353.09C1326.76 353.443 1326.58 353.427 1326.43 353.04C1323.08 344.24 1317.75 336.44 1308 335.19C1299.22 334.077 1290.16 334.013 1280.81 335C1280.49 335.033 1280.33 335.21 1280.33 335.53L1280.31 374.43C1280.31 374.683 1280.44 374.81 1280.69 374.81L1285.21 374.82C1285.48 374.82 1285.61 374.683 1285.61 374.41L1285.62 339.79C1285.62 339.653 1285.67 339.522 1285.76 339.422C1285.86 339.321 1285.98 339.26 1286.12 339.25C1292.42 338.677 1298.83 338.59 1305.34 338.99C1313.08 339.463 1319.02 342.883 1323.17 349.25C1323.22 349.315 1323.24 349.395 1323.23 349.475C1323.22 349.554 1323.18 349.628 1323.12 349.681C1323.06 349.734 1322.99 349.762 1322.9 349.76C1322.82 349.758 1322.75 349.726 1322.69 349.67C1320.48 347.75 1317.81 345.793 1314.69 343.8C1311.14 341.53 1307.79 341.61 1302.71 341.46C1298.06 341.327 1293.22 341.433 1288.17 341.78Z" fill="#166534"/>
<path d="M964.914 359.114C964.85 359.243 964.738 359.34 964.602 359.385C964.466 359.43 964.317 359.42 964.189 359.356L963.009 358.764C962.881 358.7 962.784 358.588 962.739 358.452C962.693 358.316 962.704 358.168 962.768 358.04L976.246 331.126C976.31 330.998 976.422 330.9 976.558 330.855C976.694 330.81 976.842 330.821 976.97 330.885L978.151 331.476C978.279 331.54 978.376 331.652 978.421 331.788C978.466 331.924 978.456 332.072 978.392 332.2L964.914 359.114Z" fill="#166534"/>
<path d="M1121.36 430.15V340.27C1121.36 340.191 1121.39 340.115 1121.45 340.06L1130.84 330.67C1130.87 330.642 1130.9 330.62 1130.94 330.605C1130.98 330.59 1131.02 330.583 1131.06 330.584C1131.1 330.585 1131.14 330.594 1131.17 330.61C1131.21 330.627 1131.24 330.65 1131.27 330.68L1132.44 331.95C1132.49 332.005 1132.52 332.079 1132.52 332.155C1132.52 332.231 1132.49 332.304 1132.44 332.36L1123.76 341.04C1123.7 341.095 1123.67 341.171 1123.67 341.25V429.38C1123.67 429.458 1123.7 429.533 1123.75 429.59L1138.07 445.03C1138.11 445.073 1138.13 445.126 1138.14 445.183C1138.15 445.24 1138.14 445.298 1138.12 445.351C1138.1 445.403 1138.06 445.448 1138.01 445.48C1137.96 445.512 1137.91 445.529 1137.85 445.53H1093.66C1093.58 445.529 1093.51 445.496 1093.45 445.44L1091.66 443.65C1091.62 443.608 1091.59 443.555 1091.58 443.497C1091.57 443.44 1091.57 443.38 1091.6 443.326C1091.62 443.271 1091.66 443.225 1091.71 443.192C1091.75 443.159 1091.81 443.141 1091.87 443.14H1132.61C1132.67 443.139 1132.72 443.122 1132.77 443.09C1132.82 443.058 1132.86 443.013 1132.88 442.961C1132.9 442.908 1132.91 442.85 1132.9 442.793C1132.89 442.736 1132.87 442.683 1132.83 442.64L1121.44 430.36C1121.39 430.303 1121.36 430.228 1121.36 430.15Z" fill="#166534"/>
<path d="M83.7067 359.061C83.6707 359.132 83.621 359.196 83.5603 359.249C83.4997 359.301 83.4293 359.341 83.3533 359.366C83.2772 359.391 83.1969 359.401 83.117 359.395C83.0371 359.389 82.9592 359.368 82.8876 359.332L81.8334 358.802C81.6889 358.729 81.5792 358.602 81.5284 358.448C81.4776 358.295 81.4899 358.127 81.5626 357.983L95.0331 331.199C95.0691 331.128 95.1188 331.064 95.1795 331.012C95.2401 330.959 95.3105 330.919 95.3865 330.894C95.4626 330.869 95.5429 330.859 95.6228 330.865C95.7027 330.871 95.7806 330.892 95.8522 330.928L96.9064 331.459C97.0509 331.531 97.1606 331.658 97.2114 331.812C97.2622 331.966 97.2499 332.133 97.1772 332.278L83.7067 359.061Z" fill="#166534"/>
<path d="M866.575 359.015C866.496 359.171 866.359 359.29 866.192 359.345C866.026 359.4 865.845 359.387 865.689 359.308L864.724 358.823C864.646 358.784 864.577 358.73 864.521 358.664C864.464 358.599 864.421 358.523 864.394 358.44C864.367 358.358 864.356 358.271 864.362 358.185C864.368 358.098 864.392 358.014 864.431 357.937L877.865 331.225C877.944 331.068 878.082 330.95 878.248 330.895C878.414 330.84 878.595 330.853 878.752 330.932L879.716 331.417C879.794 331.456 879.863 331.51 879.919 331.575C879.976 331.641 880.019 331.717 880.047 331.799C880.074 331.882 880.084 331.969 880.078 332.055C880.072 332.141 880.048 332.226 880.01 332.303L866.575 359.015Z" fill="#166534"/>
<path d="M1346.02 333.99C1340.18 341.34 1335.48 348.93 1331.68 357.39C1331.51 357.777 1331.28 357.807 1331.01 357.48L1330.36 356.69C1330.12 356.397 1330.08 356.073 1330.23 355.72C1333.98 347.167 1338.79 339.307 1344.66 332.14C1344.92 331.82 1345.18 331.82 1345.45 332.14L1346.01 332.82C1346.15 332.984 1346.22 333.19 1346.22 333.403C1346.22 333.616 1346.15 333.823 1346.02 333.99Z" fill="#166534"/>
<path d="M766.97 357.37C766.797 357.75 766.573 357.78 766.3 357.46L765.66 356.67C765.42 356.377 765.377 356.054 765.53 355.7C769.27 347.18 774.067 339.35 779.92 332.21C780.18 331.89 780.44 331.89 780.7 332.21L781.26 332.89C781.396 333.053 781.472 333.258 781.474 333.471C781.475 333.684 781.404 333.892 781.27 334.06C775.45 341.38 770.76 348.94 766.97 357.37Z" fill="#166534"/>
<path d="M329.86 442.61C329.96 430.47 329.96 402.273 329.86 358.02C329.847 352.847 330.357 348.307 331.39 344.4C333.19 337.61 338.3 335.3 344.59 333.92C344.97 333.84 345.08 333.973 344.92 334.32L344.25 335.75C344.05 336.197 343.71 336.46 343.23 336.54C332.03 338.44 332.26 349.87 332.27 358.81C332.343 409.31 332.353 438.037 332.3 444.99C332.293 445.343 332.113 445.52 331.76 445.52H314.34C313.88 445.52 313.57 445.307 313.41 444.88L312.99 443.73C312.843 443.337 312.98 443.14 313.4 443.14H329.33C329.677 443.14 329.853 442.963 329.86 442.61Z" fill="#166534"/>
<path d="M1227.58 443.16C1227.93 443.16 1228.1 442.983 1228.11 442.63C1228.22 430.483 1228.23 402.263 1228.15 357.97C1228.14 352.797 1228.65 348.253 1229.69 344.34C1231.49 337.55 1236.61 335.24 1242.9 333.86C1243.28 333.78 1243.39 333.913 1243.23 334.26L1242.56 335.69C1242.36 336.137 1242.02 336.4 1241.54 336.48C1230.33 338.38 1230.56 349.82 1230.56 358.76C1230.61 409.307 1230.61 438.057 1230.55 445.01C1230.54 445.363 1230.36 445.54 1230.01 445.54H1212.58C1212.12 445.54 1211.81 445.327 1211.65 444.9L1211.23 443.74C1211.08 443.347 1211.22 443.15 1211.64 443.15L1227.58 443.16Z" fill="#166534"/>
<path d="M45.9499 339.96C42.7999 340.95 39.1099 343.76 37.6499 346.92C33.8999 355.04 39.3399 361.13 45.7499 365.9C45.8899 366.007 45.9466 366.143 45.9199 366.31C45.9066 366.423 45.8599 366.52 45.7799 366.6C45.7132 366.667 45.6366 366.683 45.5499 366.65C37.4699 363.73 32.2899 356.65 34.7199 347.82C37.5699 337.49 49.3199 335.65 58.9899 337.76C64.7232 339.007 69.1066 342.147 72.1399 347.18C72.4799 347.753 72.6099 348.26 72.5299 348.7C72.4566 349.087 72.2899 349.133 72.0299 348.84C65.3399 341.5 55.5799 336.94 45.9499 339.96Z" fill="#166534"/>
<path d="M828.82 339.95C825.67 340.93 821.97 343.73 820.5 346.89C816.74 355.01 822.17 361.11 828.57 365.89C828.71 365.997 828.767 366.133 828.74 366.3C828.727 366.413 828.68 366.51 828.6 366.59C828.533 366.657 828.457 366.673 828.37 366.64C820.29 363.71 815.12 356.62 817.57 347.79C820.44 337.46 832.2 335.64 841.87 337.77C847.603 339.03 851.98 342.18 855 347.22C855.34 347.793 855.47 348.3 855.39 348.74C855.317 349.127 855.15 349.173 854.89 348.88C848.21 341.53 838.46 336.95 828.82 339.95Z" fill="#166534"/>
<path d="M927.23 339.93C924.08 340.91 920.37 343.7 918.89 346.85C915.1 354.96 920.52 361.08 926.9 365.88C927.04 365.987 927.097 366.123 927.07 366.29C927.057 366.403 927.01 366.5 926.93 366.58C926.863 366.647 926.787 366.663 926.7 366.63C918.63 363.67 913.48 356.56 915.96 347.74C918.86 337.42 930.62 335.64 940.29 337.79C946.017 339.07 950.387 342.233 953.4 347.28C953.733 347.86 953.86 348.37 953.78 348.81C953.707 349.197 953.54 349.24 953.28 348.94C946.62 341.57 936.88 336.96 927.23 339.93Z" fill="#166534"/>
<path d="M679.13 440.85C679.156 440.842 679.179 440.828 679.197 440.809C679.216 440.789 679.228 440.765 679.234 440.74C679.239 440.715 679.237 440.689 679.227 440.666C679.218 440.643 679.201 440.623 679.18 440.61C666.767 431.643 656.857 420.353 649.45 406.74C645.877 400.173 642.793 393.483 640.2 386.67C640.165 386.576 640.149 386.476 640.152 386.376C640.156 386.276 640.179 386.177 640.221 386.086C640.263 385.995 640.322 385.913 640.396 385.845C640.47 385.777 640.556 385.724 640.65 385.69C650.82 382.03 660.69 375.54 664.45 365.49C668.02 355.97 665.83 347.29 660.69 338.81C659.897 337.503 660.02 337.41 661.06 338.53C666.667 344.543 669.007 351.84 668.08 360.42C666.64 373.74 655.19 382.57 643.42 387.2C643.013 387.36 642.88 387.646 643.02 388.06C647.367 400.766 654.033 412.47 663.02 423.17C668.807 430.07 675.737 435.996 683.81 440.95C683.865 440.984 683.909 441.033 683.936 441.092C683.963 441.15 683.973 441.216 683.963 441.279C683.953 441.343 683.925 441.403 683.882 441.451C683.839 441.499 683.783 441.533 683.72 441.55C670.6 445.043 658.457 450.353 647.29 457.48C646.723 457.84 646.143 457.866 645.55 457.56C645.47 457.52 645.373 457.476 645.26 457.43C644.487 457.096 644.453 456.7 645.16 456.24C655.793 449.273 667.117 444.143 679.13 440.85Z" fill="#166534"/>
<path d="M546.39 339.75C554.21 345.476 559.184 353.543 561.31 363.95C566.68 390.2 562.54 429.7 532.32 440.55C524.634 443.31 516.61 444.86 508.25 445.2C499.91 445.546 486.974 445.646 469.44 445.5C469.313 445.496 469.189 445.456 469.086 445.382C468.983 445.309 468.904 445.207 468.86 445.09L468.26 443.47C468.247 443.432 468.244 443.392 468.25 443.352C468.256 443.313 468.271 443.275 468.295 443.243C468.318 443.21 468.349 443.184 468.385 443.166C468.421 443.148 468.46 443.139 468.5 443.14C489.354 443.146 499.93 443.146 500.23 443.14C509.19 443.1 516.947 442.316 523.5 440.79C547.75 435.13 558.98 415.51 560.78 391.99C561.94 376.87 560.92 361.08 553.01 348.49C551.16 345.53 548.49 342.86 546.17 339.97C545.677 339.35 545.75 339.276 546.39 339.75Z" fill="#166534"/>
<path d="M754.85 361.49L755.92 362.34C755.982 362.389 756.032 362.451 756.067 362.522C756.102 362.593 756.12 362.671 756.12 362.75V399.78C756.12 399.877 756.092 399.973 756.041 400.056C755.989 400.138 755.915 400.205 755.828 400.247C755.74 400.29 755.642 400.307 755.546 400.297C755.449 400.287 755.357 400.25 755.28 400.19L754.21 399.34C754.147 399.291 754.097 399.229 754.062 399.158C754.028 399.087 754.01 399.009 754.01 398.93V361.9C754.01 361.803 754.037 361.707 754.089 361.624C754.14 361.542 754.214 361.475 754.302 361.433C754.389 361.39 754.487 361.373 754.584 361.383C754.681 361.393 754.773 361.43 754.85 361.49Z" fill="#166534"/>
<path d="M1319.97 400.22L1318.96 399.42C1318.9 399.374 1318.85 399.314 1318.82 399.247C1318.79 399.179 1318.77 399.105 1318.77 399.03V361.94C1318.77 361.846 1318.8 361.755 1318.85 361.675C1318.9 361.596 1318.97 361.533 1319.05 361.492C1319.14 361.451 1319.23 361.435 1319.32 361.445C1319.42 361.456 1319.51 361.492 1319.58 361.55L1320.59 362.36C1320.65 362.407 1320.7 362.466 1320.73 362.533C1320.76 362.601 1320.78 362.675 1320.78 362.75V399.83C1320.78 399.924 1320.75 400.016 1320.7 400.095C1320.65 400.174 1320.58 400.238 1320.5 400.278C1320.41 400.319 1320.32 400.335 1320.23 400.325C1320.13 400.314 1320.04 400.278 1319.97 400.22Z" fill="#166534"/>
<path d="M233.96 443.14C234.52 443.14 234.59 442.957 234.17 442.59C229.657 438.643 225.157 434.753 220.67 430.92C219.644 430.04 218.847 428.847 218.28 427.34C216.594 422.833 211.784 410.07 203.85 389.05C203.83 388.996 203.822 388.939 203.827 388.882C203.832 388.824 203.849 388.769 203.878 388.719C203.907 388.67 203.946 388.627 203.993 388.594C204.04 388.562 204.094 388.54 204.15 388.53C209.29 387.61 214.594 387.647 220.06 388.64C220.145 388.656 220.232 388.647 220.312 388.614C220.392 388.581 220.461 388.526 220.51 388.456C220.56 388.385 220.588 388.302 220.592 388.216C220.595 388.13 220.574 388.044 220.53 387.97C217.05 381.883 214.404 375.603 212.59 369.13C212.484 368.763 212.607 368.65 212.96 368.79C214.154 369.257 214.877 369.86 215.13 370.6C217.524 377.68 220.647 384.42 224.5 390.82C224.52 390.853 224.531 390.89 224.531 390.928C224.532 390.967 224.522 391.004 224.502 391.037C224.482 391.07 224.454 391.097 224.42 391.115C224.387 391.134 224.348 391.142 224.31 391.14L207.52 390.01C207.421 390.003 207.323 390.022 207.233 390.063C207.143 390.105 207.065 390.169 207.006 390.248C206.947 390.328 206.91 390.421 206.896 390.519C206.883 390.618 206.895 390.717 206.93 390.81C214.004 409.437 218.514 421.293 220.46 426.38C221.014 427.827 221.824 429.013 222.89 429.94C228.864 435.147 234.417 440.087 239.55 444.76C240.117 445.273 240.017 445.53 239.25 445.53H190.98C190.52 445.53 190.164 445.34 189.91 444.96L189.15 443.83C188.85 443.37 188.974 443.14 189.52 443.14H233.96Z" fill="#166534"/>
<path d="M20.3601 380.73C22.7601 381.85 23.9101 383.97 25.8501 385.24C28.9501 387.28 32.2768 388.733 35.8301 389.6C50.8834 393.273 60.9568 395.956 66.0501 397.65C72.1101 399.66 76.3201 401.72 78.9001 407.69C78.9216 407.739 78.9293 407.793 78.9222 407.847C78.9152 407.902 78.8938 407.955 78.8601 408C78.8201 408.046 78.7134 408.09 78.5401 408.13C78.4601 408.15 78.3901 408.126 78.3301 408.06C72.9201 402.12 66.4401 399.85 58.1601 397.86C48.2401 395.48 41.1934 393.686 37.0201 392.48C29.8501 390.41 22.2101 387.85 20.0401 381.02C20.0265 380.975 20.0257 380.927 20.038 380.882C20.0502 380.837 20.0749 380.796 20.1089 380.765C20.143 380.734 20.185 380.715 20.2296 380.708C20.2743 380.702 20.3196 380.709 20.3601 380.73Z" fill="#166534"/>
<path d="M803.17 380.71C805.57 381.83 806.72 383.96 808.67 385.23C811.77 387.27 815.097 388.723 818.65 389.59C833.717 393.27 843.797 395.96 848.89 397.66C854.95 399.67 859.17 401.73 861.75 407.71C861.772 407.759 861.779 407.813 861.772 407.868C861.765 407.922 861.744 407.975 861.71 408.02C861.67 408.066 861.564 408.11 861.39 408.15C861.31 408.17 861.24 408.146 861.18 408.08C855.76 402.13 849.28 399.86 841 397.87C831.074 395.483 824.02 393.686 819.84 392.48C812.67 390.4 805.02 387.84 802.85 381C802.837 380.955 802.836 380.907 802.848 380.862C802.86 380.817 802.885 380.776 802.919 380.745C802.953 380.714 802.995 380.694 803.04 380.688C803.084 380.682 803.13 380.689 803.17 380.71Z" fill="#166534"/>
<path d="M901.63 380.79C904.03 381.9 905.18 384.02 907.11 385.28C910.21 387.32 913.533 388.77 917.08 389.63C932.107 393.29 942.163 395.963 947.25 397.65C953.3 399.65 957.5 401.71 960.08 407.66C960.101 407.709 960.109 407.763 960.102 407.817C960.095 407.872 960.073 407.924 960.04 407.97C960 408.016 959.893 408.06 959.72 408.1C959.64 408.12 959.57 408.096 959.51 408.03C954.11 402.11 947.64 399.84 939.37 397.86C929.47 395.493 922.437 393.706 918.27 392.5C911.11 390.44 903.48 387.89 901.31 381.07C901.299 381.026 901.3 380.979 901.313 380.936C901.326 380.892 901.351 380.853 901.385 380.824C901.419 380.795 901.459 380.776 901.503 380.77C901.546 380.764 901.59 380.771 901.63 380.79Z" fill="#166534"/>
<path d="M92.4899 384.46C92.4811 384.449 92.4751 384.436 92.4724 384.422C92.4697 384.408 92.4703 384.394 92.4742 384.38C92.4781 384.366 92.4852 384.354 92.4949 384.343C92.5045 384.333 92.5165 384.325 92.5299 384.32L92.8899 384.18C93.0499 384.12 93.1965 384.147 93.3299 384.26C99.7965 389.86 103.273 396.877 103.76 405.31C104.493 418.083 99.9532 428.613 90.1399 436.9C77.7499 447.36 62.0599 449.47 46.3299 446.1C42.1965 445.22 35.3065 443.66 25.6599 441.42C20.6465 440.26 15.6099 440.637 10.5499 442.55C10.0432 442.743 9.69652 442.587 9.50985 442.08L9.21985 441.29C9.01985 440.75 9.17652 440.35 9.68985 440.09C14.1165 437.843 19.8365 437.537 26.8499 439.17C30.4565 440.003 35.8232 441.297 42.9499 443.05C48.7965 444.483 55.5665 445.047 63.2599 444.74C81.2399 444.03 98.1799 431.4 101.35 413.07C103.17 402.517 100.217 392.98 92.4899 384.46Z" fill="#166534"/>
<path d="M875.31 384.39C875.301 384.379 875.295 384.365 875.293 384.352C875.29 384.338 875.29 384.323 875.294 384.31C875.298 384.296 875.305 384.283 875.315 384.273C875.325 384.263 875.337 384.255 875.35 384.25L875.71 384.11C875.87 384.05 876.017 384.076 876.15 384.19C882.623 389.796 886.107 396.82 886.6 405.26C887.333 418.046 882.79 428.59 872.97 436.89C860.56 447.36 844.86 449.47 829.11 446.1C824.97 445.22 818.073 443.66 808.42 441.42C803.4 440.26 798.357 440.64 793.29 442.56C792.783 442.753 792.437 442.596 792.25 442.09L791.96 441.3C791.76 440.753 791.917 440.35 792.43 440.09C796.863 437.843 802.59 437.536 809.61 439.17C813.217 440.003 818.59 441.296 825.73 443.05C831.583 444.483 838.36 445.046 846.06 444.74C864.06 444.02 881.01 431.38 884.18 413.03C886 402.463 883.043 392.916 875.31 384.39Z" fill="#166534"/>
<path d="M973.69 384.47C973.681 384.459 973.675 384.446 973.673 384.432C973.67 384.418 973.67 384.403 973.674 384.39C973.678 384.376 973.685 384.363 973.695 384.353C973.705 384.343 973.717 384.335 973.73 384.33L974.09 384.19C974.25 384.13 974.397 384.157 974.53 384.27C980.997 389.87 984.473 396.887 984.96 405.32C985.693 418.087 981.153 428.613 971.34 436.9C958.95 447.36 943.27 449.47 927.54 446.1C923.407 445.22 916.52 443.66 906.88 441.42C901.867 440.26 896.83 440.637 891.77 442.55C891.263 442.743 890.917 442.587 890.73 442.08L890.44 441.29C890.24 440.75 890.397 440.35 890.91 440.09C895.337 437.843 901.057 437.537 908.07 439.17C911.67 440.003 917.033 441.297 924.16 443.05C930.007 444.483 936.777 445.047 944.47 444.74C962.44 444.03 979.38 431.4 982.55 413.07C984.37 402.523 981.417 392.99 973.69 384.47Z" fill="#166534"/>
<path d="M47.6 430.4C47.6734 430.433 47.7134 430.49 47.72 430.57L47.77 430.88C47.7783 430.933 47.7727 430.987 47.7537 431.037C47.7347 431.088 47.703 431.132 47.6616 431.166C47.6203 431.201 47.5708 431.224 47.5179 431.233C47.465 431.242 47.4106 431.238 47.36 431.22C36.78 427.673 30.4267 420.293 28.3 409.08C28.2944 409.057 28.2939 409.033 28.2986 409.01C28.3032 408.987 28.3129 408.964 28.327 408.945C28.3411 408.925 28.3593 408.908 28.3805 408.895C28.4017 408.882 28.4254 408.874 28.45 408.87L30.31 408.58C30.49 408.553 30.6 408.63 30.64 408.81C32.94 418.79 38.52 426.06 47.6 430.4Z" fill="#166534"/>
<path d="M813.47 408.77C815.77 418.77 821.37 426.05 830.47 430.4C830.543 430.433 830.583 430.49 830.59 430.57L830.64 430.88C830.648 430.933 830.643 430.987 830.624 431.037C830.605 431.088 830.573 431.132 830.531 431.166C830.49 431.201 830.441 431.224 830.388 431.233C830.335 431.242 830.28 431.238 830.23 431.22C819.623 427.673 813.253 420.28 811.12 409.04C811.114 409.017 811.114 408.993 811.118 408.97C811.123 408.946 811.133 408.924 811.147 408.904C811.161 408.885 811.179 408.868 811.2 408.855C811.221 408.842 811.245 408.834 811.27 408.83L813.13 408.54C813.317 408.513 813.43 408.59 813.47 408.77Z" fill="#166534"/>
<path d="M928.7 430.36C928.773 430.393 928.813 430.45 928.82 430.53L928.86 430.84C928.866 430.891 928.858 430.943 928.839 430.991C928.82 431.038 928.789 431.08 928.749 431.113C928.709 431.146 928.662 431.168 928.612 431.178C928.561 431.188 928.509 431.185 928.46 431.17C917.927 427.617 911.617 420.253 909.53 409.08C909.524 409.057 909.524 409.033 909.529 409.01C909.533 408.987 909.543 408.965 909.557 408.945C909.571 408.925 909.589 408.908 909.61 408.895C909.632 408.882 909.655 408.874 909.68 408.87L911.53 408.59C911.71 408.563 911.82 408.64 911.86 408.82C914.12 418.76 919.67 426.01 928.7 430.36Z" fill="#166534"/>
<path d="M1351.14 442.78L1353.61 438.51C1353.89 438.023 1353.82 437.59 1353.41 437.21C1345.99 430.41 1340.45 422.703 1336.78 414.09C1336.53 413.517 1336.71 413.327 1337.31 413.52L1338.31 413.83C1338.87 414.003 1339.27 414.353 1339.51 414.88C1343.46 423.47 1349.34 430.52 1356.22 437.41C1356.48 437.67 1356.52 437.957 1356.33 438.27L1352.35 445.18C1352.21 445.413 1352.01 445.53 1351.74 445.53H1258.27C1258 445.53 1257.79 445.42 1257.64 445.2L1256.69 443.78C1256.41 443.353 1256.52 443.14 1257.03 443.14H1350.51C1350.79 443.14 1351 443.02 1351.14 442.78Z" fill="#166534"/>
<path d="M1326.63 515C1326.63 515.313 1326.45 515.537 1326.09 515.67C1319.07 518.383 1311.72 519.413 1304.03 518.76C1302.87 518.66 1300.99 520.34 1299.59 520.52C1297.86 520.747 1296.55 520.61 1295.65 520.11C1293.74 519.05 1292.63 518.52 1292.3 518.52C1287.25 518.5 1282.68 518.19 1277.23 518.19C716.463 518.23 295.856 518.21 15.4098 518.13C15.0765 518.13 14.8998 517.967 14.8798 517.64C14.8398 516.753 14.8198 515.87 14.8198 514.99C14.8198 514.11 14.8398 513.23 14.8798 512.35C14.8998 512.017 15.0765 511.85 15.4098 511.85C295.856 511.777 716.463 511.763 1277.23 511.81C1282.68 511.81 1287.25 511.5 1292.3 511.48C1292.63 511.48 1293.74 510.95 1295.65 509.89C1296.55 509.39 1297.86 509.253 1299.59 509.48C1300.99 509.66 1302.87 511.34 1304.03 511.24C1311.72 510.587 1319.07 511.617 1326.09 514.33C1326.45 514.463 1326.63 514.687 1326.63 515Z" fill="#166534"/>
<path d="M1188.01 527.85C1188.01 528.102 1187.91 528.344 1187.73 528.522C1187.55 528.7 1187.31 528.8 1187.06 528.8H131.6C131.348 528.8 131.106 528.7 130.928 528.522C130.75 528.344 130.65 528.102 130.65 527.85V525.73C130.65 525.478 130.75 525.237 130.928 525.058C131.106 524.88 131.348 524.78 131.6 524.78H1187.06C1187.31 524.78 1187.55 524.88 1187.73 525.058C1187.91 525.237 1188.01 525.478 1188.01 525.73V527.85Z" fill="#166534"/>
<path d="M543.13 562.8L543.17 562.75L542.97 562.58C542.81 562.453 542.657 562.46 542.51 562.6C535.837 569.26 531.673 573.82 530.02 576.28C522.847 586.953 514.483 596.587 504.93 605.18C503.777 606.213 501.637 607.76 498.51 609.82C472.92 626.67 433.52 616.78 430.25 582.24C429.06 569.7 430.18 547.84 412.99 544.67C401.14 542.48 389.52 547.5 391.2 561.56C391.513 564.213 392.573 566.287 394.38 567.78C397.43 570.31 401.78 570.32 404.23 566.99C407.45 562.59 403.34 558.48 398.61 558.87C396.997 559.003 396.9 558.683 398.32 557.91C400.927 556.497 403.553 556.227 406.2 557.1C411.42 558.81 411.85 564.98 410.22 569.48C407.19 577.8 398.12 580.4 390.35 576.65C386.623 574.85 383.983 571.83 382.43 567.59C378.36 556.48 385.76 544.98 395.46 540.2C396.8 539.54 396.723 539.21 395.23 539.21H267.71C267.197 539.21 266.94 538.953 266.94 538.44V536C266.94 535.785 267.025 535.579 267.177 535.427C267.329 535.275 267.535 535.19 267.75 535.19H1050.33C1050.91 535.19 1051.2 535.48 1051.2 536.06V538.45C1051.2 538.957 1050.95 539.21 1050.44 539.21H916.39C915.197 539.21 915.13 539.483 916.19 540.03C928.3 546.31 935.36 560.22 926.69 572.44C923.61 576.79 917.03 579.19 911.59 578.06C906.11 576.913 902.62 573.413 901.12 567.56C898.95 559.06 906.09 554.17 913.57 557.89C913.668 557.935 913.748 558.015 913.799 558.118C913.849 558.221 913.867 558.341 913.85 558.46C913.837 558.54 913.793 558.623 913.72 558.71C913.627 558.823 913.51 558.873 913.37 558.86C906.69 558.26 903.62 565.59 909.88 568.97C913.31 570.82 918.11 568.41 919.41 565.15C922.84 556.61 919.54 547.77 910.51 545.02C904.11 543.06 895.57 544.12 890.42 548.9C882.13 556.58 882.51 569.5 881.67 579.81C881.283 584.603 880.697 588.237 879.91 590.71C875.79 603.637 867.17 611.98 854.05 615.74C822.31 624.84 801.21 603.21 784.47 579.95C779.83 573.5 774.94 568.28 769.38 562.93C768.687 562.263 768.563 562.357 769.01 563.21C770.17 565.41 771.86 567.2 772.95 569.43C775.257 574.157 776.453 578.017 776.54 581.01C776.813 590.143 773.44 597.183 766.42 602.13C759.88 606.74 752.03 607.48 744.83 604.18C735.61 599.95 731.24 589.84 737.38 580.87C741.01 575.56 744.5 572.44 751.42 575.34C759.76 578.84 757.29 587.9 751.09 591.81C750.57 592.143 750.393 592.01 750.56 591.41C750.993 589.917 751.247 588.98 751.32 588.6C752.46 582.69 745.43 579.71 742.23 585.28C738.66 591.5 744.01 596.33 749.66 597.94C755.01 599.46 760.32 596.89 764.27 593.24C773.73 584.5 767.17 568.9 759.08 561.94C750.36 554.43 737.89 549.97 726.44 551.32C717.773 552.347 712.04 556.473 709.24 563.7C705.67 572.93 707.74 582.26 718 585.12C719.987 585.673 721.837 585.713 723.55 585.24C728.06 583.98 730.92 577.42 726.77 574.3C724.917 572.9 722.9 572.857 720.72 574.17C719.41 574.96 718.69 576.6 717.74 578.33C717.696 578.408 717.63 578.47 717.549 578.509C717.469 578.547 717.378 578.56 717.29 578.544C717.202 578.529 717.121 578.486 717.059 578.423C716.996 578.359 716.954 578.278 716.94 578.19C715.61 569.81 722.37 563.92 730.44 567.34C736.34 569.84 735.86 575.57 734.82 581.05C732.63 592.54 719.93 594.8 710.85 590.15C701.36 585.29 697.2 574.71 699.61 564.53C702.42 552.66 712.7 546.17 724.28 545.03C725.44 544.917 725.443 544.757 724.29 544.55C722.257 544.19 720.09 544.08 717.79 544.22C691.74 545.85 671.47 560.7 664.6 586.69C660.26 603.11 660.76 620.99 668.7 636.31C676.46 651.263 688.413 661.317 704.56 666.47C719.22 671.15 739.81 670.05 751.1 658.13C762.22 646.4 766.07 623.56 747.34 616.16C739.17 612.93 729.85 614.66 726.29 622.94C725.183 625.52 725.647 628.177 727.68 630.91C732.5 637.38 741.3 633.15 735.46 625.69C735.107 625.243 735.213 625.043 735.78 625.09C738.64 625.317 740.987 626.583 742.82 628.89C745.97 632.85 743.51 638.82 739.65 641.42C736.563 643.487 733.137 643.973 729.37 642.88C719.78 640.1 717.2 628.59 720.47 619.93C724.58 609.05 736.79 605.58 747.43 608.65C756.34 611.22 763.88 615.67 768.14 624.2C775.63 639.2 770.15 656.95 758.29 667.69C753.997 671.59 748.193 674.743 740.88 677.15C728.473 681.237 715.817 681.22 702.91 677.1C702.816 677.072 702.716 677.072 702.622 677.099C702.528 677.126 702.444 677.18 702.38 677.254C702.315 677.327 702.274 677.418 702.259 677.515C702.245 677.612 702.259 677.711 702.3 677.8C707.98 689.85 709.97 706.84 699.39 716.86C691.4 724.41 679.2 724.7 670.28 718.77C663.54 714.29 660.083 708.187 659.91 700.46C659.73 691.98 663.22 685.75 672.37 685.39C677.64 685.18 682.75 687.04 684.59 692.28C686.64 698.09 682.98 704.81 676.95 706.24C675.67 706.54 675.493 706.223 676.42 705.29C678.23 703.47 679.81 700.74 678.65 698.23C677.02 694.7 672.67 693.89 669.8 696.3C666.12 699.39 666.52 704.4 669.13 708.14C672.19 712.51 676.77 714.79 682.24 714.28C690.38 713.513 695.69 709.157 698.17 701.21C701.23 691.41 697.51 680.46 690.77 672.84C687.81 669.49 682.79 666.25 679.76 663.49C667.16 651.957 659.37 637.837 656.39 621.13C656.13 619.703 655.863 619.703 655.59 621.13C652.23 638.67 643.07 655.1 628.98 665.99C628.12 666.657 626.87 667.62 625.23 668.88C614.51 677.1 608.47 693.66 615.62 705.97C621.03 715.29 635.54 717.78 642.42 708.59C645.23 704.83 645.98 699.62 642.11 696.35C637.08 692.11 630.12 697.77 634.05 703.79C634.33 704.223 634.843 704.877 635.59 705.75C636.137 706.39 636 706.607 635.18 706.4C628.64 704.74 624.63 697.74 627.51 691.34C629.63 686.63 634.86 685.13 639.81 685.39C654.99 686.17 654.24 705.51 647.08 713.85C636.25 726.45 616.85 726.19 608.19 711.47C602.43 701.67 604.91 688 609.57 677.73C609.61 677.647 609.624 677.554 609.612 677.463C609.599 677.372 609.56 677.286 609.5 677.217C609.439 677.147 609.359 677.098 609.27 677.073C609.181 677.049 609.087 677.051 609 677.08C597.087 680.913 585.3 681.21 573.64 677.97C566.407 675.957 560.427 673.127 555.7 669.48C542.61 659.37 535.84 640.68 543.41 624.68C547.72 615.57 555.89 610.86 565.23 608.44C576.92 605.41 589.76 610.34 592.35 623.11C593.29 627.777 592.78 632 590.82 635.78C587.53 642.11 579.8 645.57 573.34 642.1C565.09 637.68 565.6 626.62 575.79 625.03C576.723 624.883 576.87 625.16 576.23 625.86C575.437 626.713 574.84 627.653 574.44 628.68C573.31 631.58 575.89 634.27 578.78 634.13C584.23 633.86 587.88 626.21 584.96 621.65C581.553 616.33 576.657 614.01 570.27 614.69C564.12 615.34 556.69 619.21 553.84 625.11C547.49 638.24 554.22 654.48 565.56 662.18C570.627 665.62 576.877 667.79 584.31 668.69C607.66 671.53 630.94 658.52 642.18 638.06C651.86 620.44 651.91 599.1 645.13 580.15C637.33 558.35 617.4 545.66 594.34 544.22C592.427 544.1 590.32 544.213 588.02 544.56C586.76 544.753 586.763 544.94 588.03 545.12C599.32 546.69 609.03 552.2 612.03 563.42C614.89 574.1 610.64 585.31 600.58 590.33C592.2 594.51 580.56 592.65 577.41 582.8C577.037 581.62 576.7 579.78 576.4 577.28C574.62 562.43 597.62 562.7 594.72 578.32C594.56 579.2 594.32 579.22 594 578.38C592.5 574.44 588.95 571.5 585.06 574.32C583.06 575.773 582.653 578.06 583.84 581.18C585.38 585.21 589.61 586.21 593.52 585.17C605.07 582.09 606.62 571 601.61 561.52C598.09 554.86 592.14 551.91 584.68 551.23C570.34 549.92 550.53 558.03 545.02 572.67C542.12 580.38 541.2 588.09 548.24 593.84C552.42 597.26 557.51 599.55 562.7 597.78C568.6 595.76 573.61 590.21 568.77 584.2C566.5 581.39 562.8 581.83 560.96 584.76C559.82 586.56 560.43 589.24 561.36 591.15C561.86 592.177 561.633 592.373 560.68 591.74C555.15 588.06 551.87 579.37 559.63 575.66C567.44 571.92 572.05 576.24 575.62 582.77C577.987 587.097 577.99 591.62 575.63 596.34C572.19 603.23 563.36 606.93 555.83 606.12C546.76 605.16 539.31 598.83 536.38 590.18C533.07 580.38 537.28 570.61 543.13 562.8ZM471.53 558.33C471.543 558.395 471.542 558.462 471.526 558.526C471.51 558.59 471.48 558.65 471.438 558.701C471.396 558.752 471.342 558.793 471.282 558.82C471.222 558.848 471.156 558.861 471.09 558.86C459.69 558.58 463.46 571.91 472.13 569.13C479.91 566.65 479.24 556 475.74 550.34C470.79 542.33 459.79 542.32 452.18 545.93C445.36 549.17 440.46 558.27 439.03 565.26C435.64 581.83 442.76 596.26 457.9 603.12C474.45 610.62 491.56 605.13 504.87 593.86C513.15 586.86 518.59 580 525.65 570.75C536.4 556.67 552.05 544.56 569.5 540.2C572.133 539.547 572.093 539.22 569.38 539.22H474.08C473.573 539.22 473.517 539.38 473.91 539.7C475.59 541.05 477.84 541.99 479.33 543.63C483.41 548.157 485.943 552.63 486.93 557.05C488.69 564.92 486.62 573.44 478.84 577.08C473.7 579.49 467.83 580.3 463.19 577.18C457.68 573.49 456.1 566.38 459.37 560.92C462.243 556.12 466.147 555.05 471.08 557.71C471.327 557.843 471.477 558.05 471.53 558.33ZM434.52 539.26C426.1 539.307 421.513 539.337 420.76 539.35C419.913 539.357 419.86 539.567 420.6 539.98C426.66 543.32 431.087 548.32 433.88 554.98C434.047 555.373 434.313 555.57 434.68 555.57C434.947 555.57 435.163 555.37 435.33 554.97C438.05 548.283 442.42 543.233 448.44 539.82C449.18 539.4 449.123 539.19 448.27 539.19C447.517 539.19 442.933 539.213 434.52 539.26ZM655.93 594.08C656.23 594.08 656.627 592.12 657.12 588.2C657.333 586.48 658.283 583.3 659.97 578.66C667.08 559.13 681.06 545.8 701.25 539.89C702.203 539.61 702.183 539.427 701.19 539.34C700.257 539.26 699.36 539.217 698.5 539.21C695.567 539.19 681.367 539.19 655.9 539.21C630.427 539.223 616.227 539.243 613.3 539.27C612.44 539.277 611.543 539.32 610.61 539.4C609.617 539.487 609.597 539.67 610.55 539.95C630.75 545.83 644.74 559.14 651.88 578.67C653.573 583.303 654.53 586.483 654.75 588.21C655.243 592.123 655.637 594.08 655.93 594.08ZM840.22 558.3C840.273 558.02 840.423 557.813 840.67 557.68C845.603 555.02 849.507 556.09 852.38 560.89C855.65 566.35 854.07 573.46 848.56 577.15C843.92 580.27 838.05 579.46 832.91 577.06C825.13 573.42 823.06 564.9 824.82 557.03C825.807 552.61 828.34 548.137 832.42 543.61C833.91 541.96 836.16 541.02 837.84 539.67C838.233 539.35 838.177 539.19 837.67 539.19L742.37 539.21C739.657 539.21 739.617 539.537 742.25 540.19C759.7 544.55 775.35 556.66 786.1 570.73C793.16 579.98 798.61 586.84 806.89 593.84C820.2 605.11 837.31 610.59 853.86 603.09C869 596.23 876.12 581.8 872.72 565.23C871.29 558.24 866.39 549.14 859.57 545.9C851.96 542.29 840.96 542.3 836.01 550.31C832.51 555.98 831.84 566.63 839.62 569.1C848.29 571.88 852.06 558.55 840.66 558.83C840.594 558.831 840.528 558.818 840.468 558.79C840.408 558.763 840.354 558.722 840.312 558.671C840.27 558.62 840.24 558.56 840.224 558.496C840.208 558.432 840.206 558.365 840.22 558.3ZM877.26 539.3C868.9 539.24 864.347 539.21 863.6 539.21C862.753 539.21 862.697 539.42 863.43 539.84C869.41 543.233 873.747 548.253 876.44 554.9C876.6 555.3 876.817 555.5 877.09 555.5C877.45 555.507 877.713 555.31 877.88 554.91C880.66 548.297 885.063 543.333 891.09 540.02C891.83 539.613 891.777 539.403 890.93 539.39C890.177 539.383 885.62 539.353 877.26 539.3Z" fill="#166534"/>
</svg>
